NotoSansTaiViet-Regular.ufo
<glyph name="uniAA82" format="2">
  <advance width="1020"/>
  <unicode hex="AA82"/>
  <outline>
    <contour>
      <point x="808" y="-186" type="curve" smooth="yes"/>
      <point x="929" y="-186"/>
      <point x="971" y="-117"/>
      <point x="971" y="-51" type="curve" smooth="yes"/>
      <point x="971" y="21"/>
      <point x="913" y="80"/>
      <point x="783" y="81" type="curve"/>
      <point x="791" y="264"/>
      <point x="847" y="532"/>
      <point x="959" y="646" type="curve"/>
      <point x="936" y="676" type="line"/>
      <point x="793" y="539"/>
      <point x="718" y="326"/>
      <point x="698" y="77" type="curve"/>
      <point x="638" y="71"/>
      <point x="599" y="59"/>
      <point x="527" y="59" type="curve" smooth="yes"/>
      <point x="494" y="59"/>
      <point x="484" y="72"/>
      <point x="484" y="94" type="curve" smooth="yes"/>
      <point x="484" y="170"/>
      <point x="531" y="326"/>
      <point x="531" y="425" type="curve" smooth="yes"/>
      <point x="531" y="475"/>
      <point x="502" y="546"/>
      <point x="406" y="546" type="curve" smooth="yes"/>
      <point x="214" y="546"/>
      <point x="87" y="313"/>
      <point x="49" y="-2" type="curve"/>
      <point x="145" y="24" type="line"/>
      <point x="175" y="229"/>
      <point x="210" y="478"/>
      <point x="386" y="478" type="curve" smooth="yes"/>
      <point x="421" y="478"/>
      <point x="443" y="448"/>
      <point x="443" y="417" type="curve" smooth="yes"/>
      <point x="443" y="299"/>
      <point x="396" y="172"/>
      <point x="396" y="96" type="curve" smooth="yes"/>
      <point x="396" y="29"/>
      <point x="436" y="-10"/>
      <point x="511" y="-10" type="curve" smooth="yes"/>
      <point x="632" y="-10"/>
      <point x="667" y="13"/>
      <point x="785" y="13" type="curve" smooth="yes"/>
      <point x="858" y="13"/>
      <point x="898" y="-18"/>
      <point x="898" y="-59" type="curve" smooth="yes"/>
      <point x="898" y="-124"/>
      <point x="842" y="-132"/>
      <point x="799" y="-132" type="curve" smooth="yes"/>
      <point x="767" y="-132"/>
      <point x="728" y="-121"/>
      <point x="703" y="-103" type="curve"/>
      <point x="681" y="-134" type="line"/>
      <point x="711" y="-160"/>
      <point x="756" y="-186"/>
    </contour>
  </outline>
</glyph>
<glyph name="uniAA83" format="2">
  <advance width="1072"/>
  <unicode hex="AA83"/>
  <outline>
    <contour>
      <point x="593" y="-293" type="line"/>
      <point x="746" y="-224"/>
      <point x="1033" y="-24"/>
      <point x="1033" y="168" type="curve" smooth="yes"/>
      <point x="1033" y="255"/>
      <point x="974" y="287"/>
      <point x="925" y="287" type="curve" smooth="yes"/>
      <point x="916" y="287"/>
      <point x="905" y="286"/>
      <point x="895" y="284" type="curve"/>
      <point x="915" y="316"/>
      <point x="929" y="354"/>
      <point x="929" y="400" type="curve" smooth="yes"/>
      <point x="929" y="455"/>
      <point x="911" y="546"/>
      <point x="789" y="546" type="curve" smooth="yes"/>
      <point x="640" y="546"/>
      <point x="603" y="382"/>
      <point x="534" y="106" type="curve"/>
      <point x="508" y="190"/>
      <point x="459" y="420"/>
      <point x="446" y="498" type="curve" smooth="yes"/>
      <point x="441" y="527"/>
      <point x="429" y="546"/>
      <point x="402" y="546" type="curve" smooth="yes"/>
      <point x="366" y="546"/>
      <point x="278" y="347"/>
      <point x="221" y="100" type="curve"/>
      <point x="195" y="149"/>
      <point x="138" y="434"/>
      <point x="128" y="546" type="curve"/>
      <point x="49" y="528" type="line"/>
      <point x="52" y="432"/>
      <point x="112" y="110"/>
      <point x="169" y="17" type="curve" smooth="yes"/>
      <point x="183" y="-6"/>
      <point x="197" y="-10"/>
      <point x="215" y="-10" type="curve" smooth="yes"/>
      <point x="242" y="-10"/>
      <point x="257" y="14"/>
      <point x="267" y="44" type="curve" smooth="yes"/>
      <point x="274" y="65"/>
      <point x="343" y="367"/>
      <point x="380" y="410" type="curve"/>
      <point x="391" y="314"/>
      <point x="439" y="94"/>
      <point x="476" y="16" type="curve" smooth="yes"/>
      <point x="484" y="-1"/>
      <point x="500" y="-10"/>
      <point x="518" y="-10" type="curve" smooth="yes"/>
      <point x="536" y="-10"/>
      <point x="558" y="-7"/>
      <point x="567" y="22" type="curve" smooth="yes"/>
      <point x="583" y="73"/>
      <point x="604" y="145"/>
      <point x="646" y="295" type="curve" smooth="yes"/>
      <point x="680" y="415"/>
      <point x="707" y="478"/>
      <point x="776" y="478" type="curve" smooth="yes"/>
      <point x="816" y="478"/>
      <point x="841" y="446"/>
      <point x="841" y="392" type="curve" smooth="yes"/>
      <point x="841" y="331"/>
      <point x="794" y="251"/>
      <point x="744" y="214" type="curve"/>
      <point x="780" y="166" type="line"/>
      <point x="820" y="201"/>
      <point x="844" y="219"/>
      <point x="892" y="219" type="curve" smooth="yes"/>
      <point x="922" y="219"/>
      <point x="945" y="200"/>
      <point x="945" y="152" type="curve" smooth="yes"/>
      <point x="945" y="20"/>
      <point x="789" y="-145"/>
      <point x="570" y="-255" type="curve"/>
    </contour>
  </outline>
</glyph>
<glyph name="uniAA84" format="2">
  <advance width="986"/>
  <unicode hex="AA84"/>
  <outline>
    <contour>
      <point x="841" y="-20" type="curve" smooth="yes"/>
      <point x="914" y="-20"/>
      <point x="962" y="23"/>
      <point x="962" y="62" type="curve" smooth="yes"/>
      <point x="962" y="107"/>
      <point x="931" y="145"/>
      <point x="850" y="145" type="curve" smooth="yes"/>
      <point x="819" y="145"/>
      <point x="790" y="140"/>
      <point x="763" y="133" type="curve"/>
      <point x="761" y="149"/>
      <point x="760" y="166"/>
      <point x="760" y="185" type="curve" smooth="yes"/>
      <point x="760" y="361"/>
      <point x="822" y="521"/>
      <point x="938" y="646" type="curve"/>
      <point x="915" y="676" type="line"/>
      <point x="758" y="536"/>
      <point x="672" y="342"/>
      <point x="672" y="181" type="curve" smooth="yes"/>
      <point x="672" y="154"/>
      <point x="675" y="128"/>
      <point x="682" y="104" type="curve"/>
      <point x="629" y="82"/>
      <point x="579" y="59"/>
      <point x="527" y="59" type="curve" smooth="yes"/>
      <point x="494" y="59"/>
      <point x="484" y="72"/>
      <point x="484" y="94" type="curve" smooth="yes"/>
      <point x="484" y="170"/>
      <point x="531" y="321"/>
      <point x="531" y="419" type="curve" smooth="yes"/>
      <point x="531" y="480"/>
      <point x="497" y="546"/>
      <point x="406" y="546" type="curve" smooth="yes"/>
      <point x="215" y="546"/>
      <point x="85" y="308"/>
      <point x="49" y="-2" type="curve"/>
      <point x="145" y="24" type="line"/>
      <point x="177" y="251"/>
      <point x="217" y="478"/>
      <point x="386" y="478" type="curve" smooth="yes"/>
      <point x="421" y="478"/>
      <point x="443" y="443"/>
      <point x="443" y="412" type="curve" smooth="yes"/>
      <point x="443" y="294"/>
      <point x="396" y="172"/>
      <point x="396" y="96" type="curve" smooth="yes"/>
      <point x="396" y="29"/>
      <point x="436" y="-10"/>
      <point x="511" y="-10" type="curve" smooth="yes"/>
      <point x="593" y="-10"/>
      <point x="651" y="22"/>
      <point x="707" y="50" type="curve"/>
      <point x="734" y="8"/>
      <point x="779" y="-20"/>
    </contour>
    <contour>
      <point x="844" y="34" type="curve" smooth="yes"/>
      <point x="812" y="34"/>
      <point x="791" y="51"/>
      <point x="777" y="80" type="curve"/>
      <point x="798" y="87"/>
      <point x="820" y="91"/>
      <point x="844" y="91" type="curve" smooth="yes"/>
      <point x="880" y="91"/>
      <point x="889" y="74"/>
      <point x="889" y="61" type="curve" smooth="yes"/>
      <point x="889" y="44"/>
      <point x="873" y="34"/>
    </contour>
  </outline>
</glyph>
<glyph name="uniAA85" format="2">
  <advance width="479"/>
  <unicode hex="AA85"/>
  <outline>
    <contour>
      <point x="-1" y="-293" type="line"/>
      <point x="264" y="-180"/>
      <point x="439" y="-42"/>
      <point x="439" y="158" type="curve" smooth="yes"/>
      <point x="439" y="245"/>
      <point x="380" y="287"/>
      <point x="332" y="287" type="curve" smooth="yes"/>
      <point x="322" y="287"/>
      <point x="312" y="286"/>
      <point x="302" y="284" type="curve"/>
      <point x="330" y="319"/>
      <point x="347" y="366"/>
      <point x="347" y="412" type="curve" smooth="yes"/>
      <point x="347" y="479"/>
      <point x="313" y="546"/>
      <point x="191" y="546" type="curve" smooth="yes"/>
      <point x="102" y="546"/>
      <point x="37" y="478"/>
      <point x="34" y="389" type="curve"/>
      <point x="83" y="389" type="line"/>
      <point x="97" y="461"/>
      <point x="137" y="478"/>
      <point x="186" y="478" type="curve" smooth="yes"/>
      <point x="225" y="478"/>
      <point x="259" y="460"/>
      <point x="259" y="406" type="curve" smooth="yes"/>
      <point x="259" y="354"/>
      <point x="235" y="292"/>
      <point x="151" y="243" type="curve"/>
      <point x="187" y="195" type="line"/>
      <point x="209" y="210"/>
      <point x="245" y="223"/>
      <point x="277" y="223" type="curve" smooth="yes"/>
      <point x="316" y="223"/>
      <point x="352" y="193"/>
      <point x="352" y="141" type="curve" smooth="yes"/>
      <point x="352" y="13"/>
      <point x="286" y="-125"/>
      <point x="-24" y="-255" type="curve"/>
    </contour>
  </outline>
</glyph>
<glyph name="uniAA87" format="2">
  <advance width="659"/>
  <unicode hex="AA87"/>
  <outline>
    <contour>
      <point x="195" y="-283" type="line"/>
      <point x="462" y="-167"/>
      <point x="567" y="52"/>
      <point x="567" y="265" type="curve" smooth="yes"/>
      <point x="567" y="327"/>
      <point x="551" y="386"/>
      <point x="523" y="435" type="curve"/>
      <point x="565" y="469"/>
      <point x="607" y="498"/>
      <point x="649" y="522" type="curve"/>
      <point x="630" y="556" type="line"/>
      <point x="584" y="536"/>
      <point x="538" y="509"/>
      <point x="493" y="477" type="curve"/>
      <point x="451" y="525"/>
      <point x="393" y="556"/>
      <point x="322" y="556" type="curve" smooth="yes"/>
      <point x="145" y="556"/>
      <point x="59" y="411"/>
      <point x="59" y="235" type="curve" smooth="yes"/>
      <point x="59" y="164"/>
      <point x="71" y="75"/>
      <point x="96" y="7" type="curve"/>
      <point x="184" y="34" type="line"/>
      <point x="250" y="153"/>
      <point x="347" y="279"/>
      <point x="459" y="381" type="curve"/>
      <point x="473" y="344"/>
      <point x="479" y="302"/>
      <point x="479" y="257" type="curve" smooth="yes"/>
      <point x="479" y="0"/>
      <point x="371" y="-147"/>
      <point x="172" y="-246" type="curve"/>
    </contour>
    <contour>
      <point x="157" y="114" type="curve"/>
      <point x="149" y="157"/>
      <point x="146" y="208"/>
      <point x="146" y="257" type="curve" smooth="yes"/>
      <point x="146" y="379"/>
      <point x="194" y="487"/>
      <point x="313" y="487" type="curve" smooth="yes"/>
      <point x="367" y="487"/>
      <point x="406" y="465"/>
      <point x="432" y="430" type="curve"/>
      <point x="333" y="346"/>
      <point x="240" y="237"/>
    </contour>
  </outline>
</glyph>
<glyph name="uniAA88" format="2">
  <advance width="1204"/>
  <unicode hex="AA88"/>
  <outline>
    <contour>
      <point x="1018" y="-20" type="curve" smooth="yes"/>
      <point x="1087" y="-20"/>
      <point x="1133" y="21"/>
      <point x="1133" y="62" type="curve" smooth="yes"/>
      <point x="1133" y="104"/>
      <point x="1106" y="145"/>
      <point x="1021" y="145" type="curve" smooth="yes"/>
      <point x="993" y="145"/>
      <point x="963" y="140"/>
      <point x="934" y="133" type="curve"/>
      <point x="926" y="179"/>
      <point x="924" y="239"/>
      <point x="924" y="322" type="curve" smooth="yes"/>
      <point x="924" y="378"/>
      <point x="929" y="439"/>
      <point x="943" y="492" type="curve"/>
      <point x="959" y="490"/>
      <point x="976" y="489"/>
      <point x="993" y="489" type="curve" smooth="yes"/>
      <point x="1094" y="489"/>
      <point x="1180" y="541"/>
      <point x="1180" y="604" type="curve" smooth="yes"/>
      <point x="1180" y="642"/>
      <point x="1151" y="676"/>
      <point x="1085" y="676" type="curve" smooth="yes"/>
      <point x="1001" y="676"/>
      <point x="939" y="622"/>
      <point x="897" y="552" type="curve"/>
      <point x="856" y="559"/>
      <point x="812" y="571"/>
      <point x="761" y="589" type="curve"/>
      <point x="746" y="555" type="line"/>
      <point x="774" y="537"/>
      <point x="820" y="518"/>
      <point x="874" y="504" type="curve"/>
      <point x="849" y="445"/>
      <point x="836" y="380"/>
      <point x="836" y="326" type="curve" smooth="yes"/>
      <point x="836" y="226"/>
      <point x="847" y="160"/>
      <point x="863" y="113" type="curve"/>
      <point x="796" y="89"/>
      <point x="726" y="59"/>
      <point x="690" y="59" type="curve" smooth="yes"/>
      <point x="656" y="59"/>
      <point x="647" y="72"/>
      <point x="647" y="94" type="curve" smooth="yes"/>
      <point x="647" y="170"/>
      <point x="679" y="326"/>
      <point x="679" y="425" type="curve" smooth="yes"/>
      <point x="679" y="475"/>
      <point x="644" y="546"/>
      <point x="562" y="546" type="curve" smooth="yes"/>
      <point x="515" y="546"/>
      <point x="456" y="515"/>
      <point x="419" y="487" type="curve"/>
      <point x="418" y="503"/>
      <point x="417" y="519"/>
      <point x="415" y="536" type="curve"/>
      <point x="325" y="506" type="line"/>
      <point x="331" y="466"/>
      <point x="335" y="414"/>
      <point x="335" y="358" type="curve" smooth="yes"/>
      <point x="335" y="217"/>
      <point x="326" y="59"/>
      <point x="224" y="59" type="curve" smooth="yes"/>
      <point x="172" y="59"/>
      <point x="161" y="125"/>
      <point x="161" y="201" type="curve" smooth="yes"/>
      <point x="161" y="287"/>
      <point x="167" y="360"/>
      <point x="167" y="417" type="curve" smooth="yes"/>
      <point x="167" y="466"/>
      <point x="163" y="507"/>
      <point x="145" y="545" type="curve"/>
      <point x="59" y="517" type="line"/>
      <point x="74" y="484"/>
      <point x="79" y="445"/>
      <point x="79" y="402" type="curve" smooth="yes"/>
      <point x="79" y="337"/>
      <point x="73" y="260"/>
      <point x="73" y="195" type="curve" smooth="yes"/>
      <point x="73" y="84"/>
      <point x="109" y="-10"/>
      <point x="206" y="-10" type="curve" smooth="yes"/>
      <point x="346" y="-10"/>
      <point x="423" y="163"/>
      <point x="423" y="390" type="curve" smooth="yes"/>
      <point x="423" y="407"/>
      <point x="423" y="425"/>
      <point x="422" y="443" type="curve"/>
      <point x="454" y="464"/>
      <point x="504" y="478"/>
      <point x="534" y="478" type="curve" smooth="yes"/>
      <point x="569" y="478"/>
      <point x="591" y="448"/>
      <point x="591" y="417" type="curve" smooth="yes"/>
      <point x="591" y="299"/>
      <point x="559" y="172"/>
      <point x="559" y="96" type="curve" smooth="yes"/>
      <point x="559" y="29"/>
      <point x="599" y="-10"/>
      <point x="674" y="-10" type="curve" smooth="yes"/>
      <point x="757" y="-10"/>
      <point x="824" y="27"/>
      <point x="889" y="56" type="curve"/>
      <point x="917" y="10"/>
      <point x="956" y="-20"/>
    </contour>
    <contour>
      <point x="1015" y="34" type="curve" smooth="yes"/>
      <point x="990" y="34"/>
      <point x="968" y="48"/>
      <point x="952" y="80" type="curve"/>
      <point x="974" y="87"/>
      <point x="997" y="91"/>
      <point x="1021" y="91" type="curve" smooth="yes"/>
      <point x="1051" y="91"/>
      <point x="1060" y="77"/>
      <point x="1060" y="61" type="curve" smooth="yes"/>
      <point x="1060" y="44"/>
      <point x="1038" y="34"/>
    </contour>
    <contour>
      <point x="995" y="543" type="curve" smooth="yes"/>
      <point x="984" y="543"/>
      <point x="972" y="543"/>
      <point x="961" y="544" type="curve"/>
      <point x="982" y="591"/>
      <point x="1016" y="623"/>
      <point x="1065" y="623" type="curve" smooth="yes"/>
      <point x="1094" y="623"/>
      <point x="1106" y="614"/>
      <point x="1106" y="596" type="curve" smooth="yes"/>
      <point x="1106" y="577"/>
      <point x="1080" y="543"/>
    </contour>
  </outline>
</glyph>
<glyph name="uniAA8C" format="2">
  <advance width="674"/>
  <unicode hex="AA8C"/>
  <outline>
    <contour>
      <point x="226" y="-10" type="curve" smooth="yes"/>
      <point x="301" y="-10"/>
      <point x="370" y="40"/>
      <point x="439" y="70" type="curve"/>
      <point x="478" y="12"/>
      <point x="522" y="-10"/>
      <point x="564" y="-10" type="curve" smooth="yes"/>
      <point x="627" y="-10"/>
      <point x="661" y="28"/>
      <point x="661" y="65" type="curve" smooth="yes"/>
      <point x="661" y="110"/>
      <point x="623" y="149"/>
      <point x="538" y="149" type="curve" smooth="yes"/>
      <point x="520" y="149"/>
      <point x="502" y="147"/>
      <point x="485" y="144" type="curve"/>
      <point x="478" y="178"/>
      <point x="477" y="243"/>
      <point x="477" y="292" type="curve" smooth="yes"/>
      <point x="477" y="393"/>
      <point x="491" y="491"/>
      <point x="517" y="532" type="curve"/>
      <point x="506" y="584" type="line"/>
      <point x="486" y="579"/>
      <point x="480" y="577"/>
      <point x="463" y="577" type="curve" smooth="yes"/>
      <point x="416" y="577"/>
      <point x="376" y="608"/>
      <point x="376" y="694" type="curve" smooth="yes"/>
      <point x="376" y="840"/>
      <point x="477" y="957"/>
      <point x="732" y="1025" type="curve"/>
      <point x="721" y="1055" type="line"/>
      <point x="520" y="1026"/>
      <point x="287" y="906"/>
      <point x="287" y="688" type="curve" smooth="yes"/>
      <point x="287" y="616"/>
      <point x="323" y="534"/>
      <point x="414" y="514" type="curve"/>
      <point x="396" y="436"/>
      <point x="389" y="362"/>
      <point x="389" y="292" type="curve" smooth="yes"/>
      <point x="389" y="239"/>
      <point x="397" y="168"/>
      <point x="413" y="122" type="curve"/>
      <point x="344" y="96"/>
      <point x="280" y="59"/>
      <point x="242" y="59" type="curve" smooth="yes"/>
      <point x="208" y="59"/>
      <point x="194" y="70"/>
      <point x="194" y="147" type="curve" smooth="yes"/>
      <point x="194" y="243"/>
      <point x="189" y="442"/>
      <point x="140" y="545" type="curve"/>
      <point x="59" y="517" type="line"/>
      <point x="104" y="410"/>
      <point x="106" y="178"/>
      <point x="106" y="137" type="curve" smooth="yes"/>
      <point x="106" y="26"/>
      <point x="150" y="-10"/>
    </contour>
    <contour>
      <point x="558" y="44" type="curve" smooth="yes"/>
      <point x="540" y="44"/>
      <point x="521" y="52"/>
      <point x="505" y="92" type="curve"/>
      <point x="517" y="94"/>
      <point x="529" y="95"/>
      <point x="541" y="95" type="curve" smooth="yes"/>
      <point x="571" y="95"/>
      <point x="587" y="86"/>
      <point x="587" y="67" type="curve" smooth="yes"/>
      <point x="587" y="51"/>
      <point x="572" y="44"/>
    </contour>
  </outline>
</glyph>
<glyph name="uniAA8F" format="2">
  <advance width="986"/>
  <unicode hex="AA8F"/>
  <outline>
    <contour>
      <point x="849" y="-20" type="curve" smooth="yes"/>
      <point x="904" y="-20"/>
      <point x="962" y="11"/>
      <point x="962" y="64" type="curve" smooth="yes"/>
      <point x="962" y="103"/>
      <point x="932" y="145"/>
      <point x="851" y="145" type="curve" smooth="yes"/>
      <point x="823" y="145"/>
      <point x="796" y="141"/>
      <point x="771" y="135" type="curve"/>
      <point x="765" y="168"/>
      <point x="762" y="208"/>
      <point x="762" y="255" type="curve" smooth="yes"/>
      <point x="762" y="567"/>
      <point x="945" y="867"/>
      <point x="1174" y="1019" type="curve"/>
      <point x="1151" y="1055" type="line"/>
      <point x="821" y="838"/>
      <point x="674" y="512"/>
      <point x="674" y="237" type="curve" smooth="yes"/>
      <point x="674" y="186"/>
      <point x="680" y="143"/>
      <point x="692" y="108" type="curve"/>
      <point x="634" y="85"/>
      <point x="582" y="59"/>
      <point x="527" y="59" type="curve" smooth="yes"/>
      <point x="494" y="59"/>
      <point x="484" y="72"/>
      <point x="484" y="94" type="curve" smooth="yes"/>
      <point x="484" y="170"/>
      <point x="531" y="321"/>
      <point x="531" y="419" type="curve" smooth="yes"/>
      <point x="531" y="480"/>
      <point x="497" y="546"/>
      <point x="406" y="546" type="curve" smooth="yes"/>
      <point x="215" y="546"/>
      <point x="85" y="308"/>
      <point x="49" y="-2" type="curve"/>
      <point x="145" y="24" type="line"/>
      <point x="177" y="251"/>
      <point x="217" y="478"/>
      <point x="386" y="478" type="curve" smooth="yes"/>
      <point x="421" y="478"/>
      <point x="443" y="443"/>
      <point x="443" y="412" type="curve" smooth="yes"/>
      <point x="443" y="294"/>
      <point x="396" y="172"/>
      <point x="396" y="96" type="curve" smooth="yes"/>
      <point x="396" y="29"/>
      <point x="436" y="-10"/>
      <point x="511" y="-10" type="curve" smooth="yes"/>
      <point x="597" y="-10"/>
      <point x="657" y="25"/>
      <point x="717" y="54" type="curve"/>
      <point x="749" y="3"/>
      <point x="798" y="-20"/>
    </contour>
    <contour>
      <point x="845" y="34" type="curve" smooth="yes"/>
      <point x="820" y="34"/>
      <point x="800" y="51"/>
      <point x="786" y="83" type="curve"/>
      <point x="805" y="88"/>
      <point x="824" y="91"/>
      <point x="845" y="91" type="curve" smooth="yes"/>
      <point x="881" y="91"/>
      <point x="890" y="74"/>
      <point x="890" y="61" type="curve" smooth="yes"/>
      <point x="890" y="49"/>
      <point x="874" y="34"/>
    </contour>
  </outline>
</glyph>
<glyph name="uniAA90" format="2">
  <advance width="1100"/>
  <unicode hex="AA90"/>
  <outline>
    <contour>
      <point x="561" y="-293" type="line"/>
      <point x="836" y="-186"/>
      <point x="1041" y="72"/>
      <point x="1041" y="310" type="curve" smooth="yes"/>
      <point x="1041" y="469"/>
      <point x="969" y="546"/>
      <point x="902" y="546" type="curve" smooth="yes"/>
      <point x="875" y="546"/>
      <point x="852" y="523"/>
      <point x="842" y="493" type="curve" smooth="yes"/>
      <point x="826" y="445"/>
      <point x="772" y="64"/>
      <point x="653" y="64" type="curve" smooth="yes"/>
      <point x="641" y="64"/>
      <point x="635" y="72"/>
      <point x="635" y="90" type="curve" smooth="yes"/>
      <point x="635" y="167"/>
      <point x="679" y="326"/>
      <point x="679" y="425" type="curve" smooth="yes"/>
      <point x="679" y="475"/>
      <point x="644" y="546"/>
      <point x="562" y="546" type="curve" smooth="yes"/>
      <point x="515" y="546"/>
      <point x="456" y="515"/>
      <point x="419" y="487" type="curve"/>
      <point x="418" y="503"/>
      <point x="417" y="519"/>
      <point x="415" y="536" type="curve"/>
      <point x="325" y="506" type="line"/>
      <point x="331" y="466"/>
      <point x="335" y="414"/>
      <point x="335" y="358" type="curve" smooth="yes"/>
      <point x="335" y="217"/>
      <point x="326" y="59"/>
      <point x="224" y="59" type="curve" smooth="yes"/>
      <point x="172" y="59"/>
      <point x="161" y="125"/>
      <point x="161" y="201" type="curve" smooth="yes"/>
      <point x="161" y="287"/>
      <point x="167" y="360"/>
      <point x="167" y="417" type="curve" smooth="yes"/>
      <point x="167" y="466"/>
      <point x="163" y="507"/>
      <point x="145" y="545" type="curve"/>
      <point x="59" y="517" type="line"/>
      <point x="74" y="484"/>
      <point x="79" y="445"/>
      <point x="79" y="402" type="curve" smooth="yes"/>
      <point x="79" y="337"/>
      <point x="73" y="260"/>
      <point x="73" y="195" type="curve" smooth="yes"/>
      <point x="73" y="84"/>
      <point x="109" y="-10"/>
      <point x="206" y="-10" type="curve" smooth="yes"/>
      <point x="346" y="-10"/>
      <point x="423" y="163"/>
      <point x="423" y="390" type="curve" smooth="yes"/>
      <point x="423" y="407"/>
      <point x="423" y="425"/>
      <point x="422" y="443" type="curve"/>
      <point x="454" y="464"/>
      <point x="504" y="478"/>
      <point x="534" y="478" type="curve" smooth="yes"/>
      <point x="569" y="478"/>
      <point x="591" y="448"/>
      <point x="591" y="417" type="curve" smooth="yes"/>
      <point x="591" y="299"/>
      <point x="547" y="168"/>
      <point x="547" y="92" type="curve" smooth="yes"/>
      <point x="547" y="38"/>
      <point x="586" y="-4"/>
      <point x="642" y="-4" type="curve" smooth="yes"/>
      <point x="810" y="-4"/>
      <point x="873" y="332"/>
      <point x="892" y="462" type="curve"/>
      <point x="941" y="458"/>
      <point x="953" y="357"/>
      <point x="953" y="308" type="curve" smooth="yes"/>
      <point x="953" y="121"/>
      <point x="849" y="-125"/>
      <point x="538" y="-255" type="curve"/>
    </contour>
  </outline>
</glyph>
<glyph name="uniAA91" format="2">
  <advance width="792"/>
  <unicode hex="AA91"/>
  <outline>
    <contour>
      <point x="250" y="-293" type="line"/>
      <point x="525" y="-186"/>
      <point x="733" y="120"/>
      <point x="733" y="358" type="curve" smooth="yes"/>
      <point x="733" y="486"/>
      <point x="686" y="546"/>
      <point x="602" y="546" type="curve" smooth="yes"/>
      <point x="551" y="546"/>
      <point x="502" y="508"/>
      <point x="466" y="453" type="curve"/>
      <point x="453" y="505"/>
      <point x="423" y="546"/>
      <point x="362" y="546" type="curve" smooth="yes"/>
      <point x="210" y="546"/>
      <point x="85" y="308"/>
      <point x="49" y="-2" type="curve"/>
      <point x="145" y="24" type="line"/>
      <point x="177" y="251"/>
      <point x="229" y="478"/>
      <point x="342" y="478" type="curve" smooth="yes"/>
      <point x="377" y="478"/>
      <point x="390" y="440"/>
      <point x="390" y="383" type="curve" smooth="yes"/>
      <point x="390" y="323"/>
      <point x="376" y="255"/>
      <point x="357" y="191" type="curve"/>
      <point x="443" y="191" type="line"/>
      <point x="462" y="258"/>
      <point x="473" y="314"/>
      <point x="475" y="363" type="curve"/>
      <point x="497" y="417"/>
      <point x="540" y="478"/>
      <point x="590" y="478" type="curve" smooth="yes"/>
      <point x="628" y="478"/>
      <point x="646" y="449"/>
      <point x="646" y="356" type="curve" smooth="yes"/>
      <point x="646" y="169"/>
      <point x="538" y="-125"/>
      <point x="227" y="-255" type="curve"/>
    </contour>
  </outline>
</glyph>
<glyph name="uniAA92" format="2">
	<unicode hex="AA92"/>
	<advance width="598"/>
	<outline>
		<contour>
			<point x="194" y="-15" type="curve"/>
			<point x="222" y="28" type="line"/>
			<point x="161" y="62"/>
			<point x="137" y="123"/>
			<point x="137" y="204" type="curve" smooth="yes"/>
			<point x="137" y="344"/>
			<point x="236" y="478"/>
			<point x="355" y="478" type="curve" smooth="yes"/>
			<point x="426" y="478"/>
			<point x="437" y="412"/>
			<point x="437" y="335" type="curve" smooth="yes"/>
			<point x="437" y="250"/>
			<point x="431" y="181"/>
			<point x="431" y="124" type="curve" smooth="yes"/>
			<point x="431" y="75"/>
			<point x="436" y="34"/>
			<point x="453" y="-4" type="curve"/>
			<point x="540" y="24" type="line"/>
			<point x="524" y="57"/>
			<point x="519" y="96"/>
			<point x="519" y="139" type="curve" smooth="yes"/>
			<point x="519" y="204"/>
			<point x="525" y="276"/>
			<point x="525" y="341" type="curve" smooth="yes"/>
			<point x="525" y="452"/>
			<point x="487" y="546"/>
			<point x="363" y="546" type="curve" smooth="yes"/>
			<point x="200" y="546"/>
			<point x="49" y="358"/>
			<point x="49" y="200" type="curve" smooth="yes"/>
			<point x="49" y="96"/>
			<point x="102" y="17"/>
		</contour>
	</outline>
	<anchor name="anchor" x="351" y="620"/>
	<anchor name="bottom" x="341" y="0"/>
</glyph>
<glyph name="uniAA94" format="2">
  <advance width="801"/>
  <unicode hex="AA94"/>
  <outline>
    <contour>
      <point x="656" y="-4" type="curve"/>
      <point x="743" y="24" type="line"/>
      <point x="727" y="57"/>
      <point x="722" y="96"/>
      <point x="722" y="139" type="curve" smooth="yes"/>
      <point x="722" y="204"/>
      <point x="729" y="276"/>
      <point x="729" y="357" type="curve" smooth="yes"/>
      <point x="729" y="486"/>
      <point x="686" y="546"/>
      <point x="602" y="546" type="curve" smooth="yes"/>
      <point x="551" y="546"/>
      <point x="502" y="508"/>
      <point x="466" y="453" type="curve"/>
      <point x="453" y="505"/>
      <point x="423" y="546"/>
      <point x="362" y="546" type="curve" smooth="yes"/>
      <point x="210" y="546"/>
      <point x="85" y="308"/>
      <point x="49" y="-2" type="curve"/>
      <point x="145" y="24" type="line"/>
      <point x="177" y="251"/>
      <point x="229" y="478"/>
      <point x="342" y="478" type="curve" smooth="yes"/>
      <point x="377" y="478"/>
      <point x="390" y="440"/>
      <point x="390" y="383" type="curve" smooth="yes"/>
      <point x="390" y="323"/>
      <point x="376" y="255"/>
      <point x="357" y="191" type="curve"/>
      <point x="443" y="191" type="line"/>
      <point x="462" y="258"/>
      <point x="473" y="314"/>
      <point x="475" y="363" type="curve"/>
      <point x="497" y="417"/>
      <point x="540" y="478"/>
      <point x="590" y="478" type="curve" smooth="yes"/>
      <point x="628" y="478"/>
      <point x="641" y="449"/>
      <point x="641" y="356" type="curve" smooth="yes"/>
      <point x="641" y="278"/>
      <point x="634" y="201"/>
      <point x="634" y="124" type="curve" smooth="yes"/>
      <point x="634" y="75"/>
      <point x="639" y="34"/>
    </contour>
  </outline>
</glyph>
<glyph name="uniAA95" format="2">
  <advance width="760"/>
  <unicode hex="AA95"/>
  <outline>
    <contour>
      <point x="206" y="-10" type="curve" smooth="yes"/>
      <point x="295" y="-10"/>
      <point x="352" y="67"/>
      <point x="389" y="187" type="curve" smooth="yes"/>
      <point x="425" y="305"/>
      <point x="462" y="477"/>
      <point x="536" y="477" type="curve" smooth="yes"/>
      <point x="588" y="477"/>
      <point x="599" y="411"/>
      <point x="599" y="334" type="curve" smooth="yes"/>
      <point x="599" y="249"/>
      <point x="593" y="175"/>
      <point x="593" y="118" type="curve" smooth="yes"/>
      <point x="593" y="69"/>
      <point x="597" y="28"/>
      <point x="615" y="-10" type="curve"/>
      <point x="701" y="19" type="line"/>
      <point x="686" y="51"/>
      <point x="681" y="90"/>
      <point x="681" y="133" type="curve" smooth="yes"/>
      <point x="681" y="198"/>
      <point x="687" y="275"/>
      <point x="687" y="340" type="curve" smooth="yes"/>
      <point x="687" y="451"/>
      <point x="650" y="545"/>
      <point x="554" y="545" type="curve" smooth="yes"/>
      <point x="441" y="545"/>
      <point x="389" y="440"/>
      <point x="348" y="284" type="curve" smooth="yes"/>
      <point x="326" y="201"/>
      <point x="290" y="59"/>
      <point x="224" y="59" type="curve" smooth="yes"/>
      <point x="172" y="59"/>
      <point x="161" y="125"/>
      <point x="161" y="201" type="curve" smooth="yes"/>
      <point x="161" y="287"/>
      <point x="167" y="360"/>
      <point x="167" y="417" type="curve" smooth="yes"/>
      <point x="167" y="466"/>
      <point x="163" y="507"/>
      <point x="145" y="545" type="curve"/>
      <point x="59" y="517" type="line"/>
      <point x="74" y="484"/>
      <point x="79" y="445"/>
      <point x="79" y="402" type="curve" smooth="yes"/>
      <point x="79" y="337"/>
      <point x="73" y="260"/>
      <point x="73" y="195" type="curve" smooth="yes"/>
      <point x="73" y="84"/>
      <point x="109" y="-10"/>
    </contour>
  </outline>
</glyph>
<glyph name="uniAA97" format="2">
  <advance width="660"/>
  <unicode hex="AA97"/>
  <outline>
    <contour>
      <point x="122" y="-293" type="line"/>
      <point x="396" y="-186"/>
      <point x="602" y="72"/>
      <point x="602" y="310" type="curve" smooth="yes"/>
      <point x="602" y="469"/>
      <point x="529" y="546"/>
      <point x="463" y="546" type="curve" smooth="yes"/>
      <point x="436" y="546"/>
      <point x="412" y="523"/>
      <point x="402" y="493" type="curve" smooth="yes"/>
      <point x="386" y="445"/>
      <point x="333" y="64"/>
      <point x="214" y="64" type="curve" smooth="yes"/>
      <point x="175" y="64"/>
      <point x="161" y="130"/>
      <point x="161" y="207" type="curve" smooth="yes"/>
      <point x="161" y="292"/>
      <point x="167" y="361"/>
      <point x="167" y="418" type="curve" smooth="yes"/>
      <point x="167" y="467"/>
      <point x="163" y="508"/>
      <point x="145" y="546" type="curve"/>
      <point x="59" y="518" type="line"/>
      <point x="74" y="485"/>
      <point x="79" y="446"/>
      <point x="79" y="403" type="curve" smooth="yes"/>
      <point x="79" y="338"/>
      <point x="73" y="266"/>
      <point x="73" y="201" type="curve" smooth="yes"/>
      <point x="73" y="90"/>
      <point x="106" y="-4"/>
      <point x="202" y="-4" type="curve" smooth="yes"/>
      <point x="371" y="-4"/>
      <point x="434" y="332"/>
      <point x="452" y="462" type="curve"/>
      <point x="502" y="458"/>
      <point x="514" y="357"/>
      <point x="514" y="308" type="curve" smooth="yes"/>
      <point x="514" y="121"/>
      <point x="409" y="-125"/>
      <point x="99" y="-255" type="curve"/>
    </contour>
  </outline>
</glyph>
<glyph name="uniAA98" format="2">
  <advance width="1138"/>
  <unicode hex="AA98"/>
  <outline>
    <contour>
      <point x="993" y="-20" type="curve" smooth="yes"/>
      <point x="1065" y="-20"/>
      <point x="1113" y="23"/>
      <point x="1113" y="62" type="curve" smooth="yes"/>
      <point x="1113" y="107"/>
      <point x="1083" y="145"/>
      <point x="1001" y="145" type="curve" smooth="yes"/>
      <point x="970" y="145"/>
      <point x="941" y="140"/>
      <point x="915" y="133" type="curve"/>
      <point x="913" y="148"/>
      <point x="912" y="166"/>
      <point x="912" y="185" type="curve" smooth="yes"/>
      <point x="912" y="361"/>
      <point x="973" y="521"/>
      <point x="1089" y="646" type="curve"/>
      <point x="1066" y="676" type="line"/>
      <point x="909" y="536"/>
      <point x="824" y="342"/>
      <point x="824" y="181" type="curve" smooth="yes"/>
      <point x="824" y="154"/>
      <point x="827" y="128"/>
      <point x="834" y="104" type="curve"/>
      <point x="782" y="82"/>
      <point x="730" y="59"/>
      <point x="679" y="59" type="curve" smooth="yes"/>
      <point x="645" y="59"/>
      <point x="636" y="72"/>
      <point x="636" y="94" type="curve" smooth="yes"/>
      <point x="636" y="165"/>
      <point x="684" y="318"/>
      <point x="684" y="425" type="curve" smooth="yes"/>
      <point x="684" y="475"/>
      <point x="649" y="546"/>
      <point x="567" y="546" type="curve" smooth="yes"/>
      <point x="518" y="546"/>
      <point x="456" y="512"/>
      <point x="419" y="483" type="curve"/>
      <point x="418" y="500"/>
      <point x="417" y="518"/>
      <point x="415" y="536" type="curve"/>
      <point x="325" y="506" type="line"/>
      <point x="331" y="466"/>
      <point x="335" y="414"/>
      <point x="335" y="358" type="curve" smooth="yes"/>
      <point x="335" y="217"/>
      <point x="326" y="59"/>
      <point x="224" y="59" type="curve" smooth="yes"/>
      <point x="172" y="59"/>
      <point x="161" y="125"/>
      <point x="161" y="201" type="curve" smooth="yes"/>
      <point x="161" y="287"/>
      <point x="167" y="360"/>
      <point x="167" y="417" type="curve" smooth="yes"/>
      <point x="167" y="466"/>
      <point x="163" y="507"/>
      <point x="145" y="545" type="curve"/>
      <point x="59" y="517" type="line"/>
      <point x="74" y="484"/>
      <point x="79" y="445"/>
      <point x="79" y="402" type="curve" smooth="yes"/>
      <point x="79" y="337"/>
      <point x="73" y="260"/>
      <point x="73" y="195" type="curve" smooth="yes"/>
      <point x="73" y="84"/>
      <point x="109" y="-10"/>
      <point x="206" y="-10" type="curve" smooth="yes"/>
      <point x="346" y="-10"/>
      <point x="423" y="163"/>
      <point x="423" y="390" type="curve" smooth="yes"/>
      <point x="423" y="406"/>
      <point x="423" y="423"/>
      <point x="422" y="440" type="curve"/>
      <point x="454" y="462"/>
      <point x="507" y="478"/>
      <point x="539" y="478" type="curve" smooth="yes"/>
      <point x="574" y="478"/>
      <point x="596" y="448"/>
      <point x="596" y="417" type="curve" smooth="yes"/>
      <point x="596" y="314"/>
      <point x="548" y="178"/>
      <point x="548" y="96" type="curve" smooth="yes"/>
      <point x="548" y="29"/>
      <point x="587" y="-10"/>
      <point x="663" y="-10" type="curve" smooth="yes"/>
      <point x="744" y="-10"/>
      <point x="802" y="21"/>
      <point x="858" y="50" type="curve"/>
      <point x="886" y="8"/>
      <point x="930" y="-20"/>
    </contour>
    <contour>
      <point x="996" y="34" type="curve" smooth="yes"/>
      <point x="963" y="34"/>
      <point x="941" y="51"/>
      <point x="928" y="81" type="curve"/>
      <point x="949" y="87"/>
      <point x="971" y="91"/>
      <point x="995" y="91" type="curve" smooth="yes"/>
      <point x="1031" y="91"/>
      <point x="1040" y="74"/>
      <point x="1040" y="61" type="curve" smooth="yes"/>
      <point x="1040" y="44"/>
      <point x="1024" y="34"/>
    </contour>
  </outline>
</glyph>
<glyph name="uniAA9A" format="2">
  <advance width="556"/>
  <unicode hex="AA9A"/>
  <outline>
    <contour>
      <point x="229" y="-10" type="curve" smooth="yes"/>
      <point x="265" y="-10"/>
      <point x="276" y="14"/>
      <point x="286" y="44" type="curve" smooth="yes"/>
      <point x="304" y="97"/>
      <point x="367" y="459"/>
      <point x="556" y="646" type="curve"/>
      <point x="532" y="676" type="line"/>
      <point x="329" y="508"/>
      <point x="272" y="276"/>
      <point x="229" y="110" type="curve"/>
      <point x="206" y="151"/>
      <point x="133" y="418"/>
      <point x="119" y="546" type="curve"/>
      <point x="39" y="528" type="line"/>
      <point x="50" y="416"/>
      <point x="129" y="99"/>
      <point x="179" y="17" type="curve" smooth="yes"/>
      <point x="193" y="-6"/>
      <point x="207" y="-10"/>
    </contour>
  </outline>
</glyph>
<glyph name="uniAA9C" format="2">
	<unicode hex="AA9C"/>
	<advance width="624"/>
	<outline>
		<contour>
			<point x="229" y="-10" type="curve" smooth="yes"/>
			<point x="265" y="-10"/>
			<point x="281" y="21"/>
			<point x="295" y="62" type="curve" smooth="yes"/>
			<point x="369" y="278"/>
			<point x="428" y="630"/>
			<point x="941" y="1019" type="curve"/>
			<point x="918" y="1055" type="line"/>
			<point x="581" y="814"/>
			<point x="347" y="556"/>
			<point x="229" y="110" type="curve"/>
			<point x="206" y="151"/>
			<point x="133" y="418"/>
			<point x="119" y="546" type="curve"/>
			<point x="39" y="528" type="line"/>
			<point x="50" y="416"/>
			<point x="129" y="99"/>
			<point x="179" y="17" type="curve" smooth="yes"/>
			<point x="193" y="-6"/>
			<point x="207" y="-10"/>
		</contour>
	</outline>
	<anchor name="top" x="292" y="620"/>
</glyph>
<glyph name="uniAA9D" format="2">
  <advance width="921"/>
  <unicode hex="AA9D"/>
  <outline>
    <contour>
      <point x="215" y="-10" type="curve" smooth="yes"/>
      <point x="242" y="-10"/>
      <point x="257" y="14"/>
      <point x="267" y="44" type="curve" smooth="yes"/>
      <point x="274" y="65"/>
      <point x="343" y="367"/>
      <point x="380" y="410" type="curve"/>
      <point x="391" y="314"/>
      <point x="439" y="94"/>
      <point x="476" y="16" type="curve" smooth="yes"/>
      <point x="484" y="-1"/>
      <point x="500" y="-10"/>
      <point x="518" y="-10" type="curve" smooth="yes"/>
      <point x="536" y="-10"/>
      <point x="565" y="-3"/>
      <point x="577" y="25" type="curve" smooth="yes"/>
      <point x="593" y="62"/>
      <point x="628" y="171"/>
      <point x="660" y="266" type="curve" smooth="yes"/>
      <point x="730" y="473"/>
      <point x="865" y="736"/>
      <point x="1239" y="1019" type="curve"/>
      <point x="1215" y="1055" type="line"/>
      <point x="931" y="851"/>
      <point x="716" y="637"/>
      <point x="590" y="304" type="curve" smooth="yes"/>
      <point x="557" y="217"/>
      <point x="546" y="178"/>
      <point x="530" y="122" type="curve"/>
      <point x="504" y="206"/>
      <point x="459" y="420"/>
      <point x="446" y="498" type="curve" smooth="yes"/>
      <point x="441" y="527"/>
      <point x="429" y="546"/>
      <point x="402" y="546" type="curve" smooth="yes"/>
      <point x="366" y="546"/>
      <point x="278" y="347"/>
      <point x="221" y="100" type="curve"/>
      <point x="195" y="149"/>
      <point x="138" y="434"/>
      <point x="128" y="546" type="curve"/>
      <point x="49" y="528" type="line"/>
      <point x="52" y="432"/>
      <point x="112" y="110"/>
      <point x="169" y="17" type="curve" smooth="yes"/>
      <point x="183" y="-6"/>
      <point x="197" y="-10"/>
    </contour>
  </outline>
</glyph>
<glyph name="uniAA9F" format="2">
  <advance width="921"/>
  <unicode hex="AA9F"/>
  <outline>
    <contour>
      <point x="585" y="-186" type="curve" smooth="yes"/>
      <point x="706" y="-186"/>
      <point x="749" y="-122"/>
      <point x="749" y="-56" type="curve" smooth="yes"/>
      <point x="749" y="9"/>
      <point x="688" y="59"/>
      <point x="590" y="60" type="curve"/>
      <point x="609" y="110"/>
      <point x="635" y="192"/>
      <point x="660" y="266" type="curve" smooth="yes"/>
      <point x="730" y="473"/>
      <point x="865" y="736"/>
      <point x="1239" y="1019" type="curve"/>
      <point x="1215" y="1055" type="line"/>
      <point x="931" y="851"/>
      <point x="716" y="637"/>
      <point x="590" y="304" type="curve" smooth="yes"/>
      <point x="557" y="217"/>
      <point x="546" y="178"/>
      <point x="530" y="122" type="curve"/>
      <point x="504" y="206"/>
      <point x="459" y="420"/>
      <point x="446" y="498" type="curve" smooth="yes"/>
      <point x="441" y="527"/>
      <point x="429" y="546"/>
      <point x="402" y="546" type="curve" smooth="yes"/>
      <point x="366" y="546"/>
      <point x="278" y="347"/>
      <point x="221" y="100" type="curve"/>
      <point x="195" y="149"/>
      <point x="138" y="434"/>
      <point x="128" y="546" type="curve"/>
      <point x="49" y="528" type="line"/>
      <point x="52" y="432"/>
      <point x="112" y="110"/>
      <point x="169" y="17" type="curve" smooth="yes"/>
      <point x="183" y="-6"/>
      <point x="197" y="-10"/>
      <point x="215" y="-10" type="curve" smooth="yes"/>
      <point x="242" y="-10"/>
      <point x="257" y="14"/>
      <point x="267" y="44" type="curve" smooth="yes"/>
      <point x="274" y="65"/>
      <point x="343" y="367"/>
      <point x="380" y="410" type="curve"/>
      <point x="391" y="314"/>
      <point x="439" y="94"/>
      <point x="476" y="16" type="curve" smooth="yes"/>
      <point x="484" y="-1"/>
      <point x="500" y="-10"/>
      <point x="518" y="-10" type="curve" smooth="yes"/>
      <point x="527" y="-10"/>
      <point x="538" y="-8"/>
      <point x="549" y="-3" type="curve"/>
      <point x="558" y="-3"/>
      <point x="566" y="-2"/>
      <point x="575" y="-2" type="curve" smooth="yes"/>
      <point x="631" y="-2"/>
      <point x="675" y="-23"/>
      <point x="675" y="-63" type="curve" smooth="yes"/>
      <point x="675" y="-123"/>
      <point x="619" y="-132"/>
      <point x="577" y="-132" type="curve" smooth="yes"/>
      <point x="544" y="-132"/>
      <point x="505" y="-121"/>
      <point x="480" y="-103" type="curve"/>
      <point x="458" y="-134" type="line"/>
      <point x="489" y="-160"/>
      <point x="533" y="-186"/>
    </contour>
  </outline>
</glyph>
<glyph name="uniAAA3" format="2">
  <advance width="772"/>
  <unicode hex="AAA3"/>
  <outline>
    <contour>
      <point x="142" y="-20" type="curve" smooth="yes"/>
      <point x="200" y="-20"/>
      <point x="246" y="5"/>
      <point x="274" y="42" type="curve"/>
      <point x="323" y="17"/>
      <point x="378" y="-10"/>
      <point x="431" y="-10" type="curve" smooth="yes"/>
      <point x="520" y="-10"/>
      <point x="593" y="27"/>
      <point x="601" y="155" type="curve" smooth="yes"/>
      <point x="614" y="364"/>
      <point x="643" y="528"/>
      <point x="772" y="646" type="curve"/>
      <point x="749" y="676" type="line"/>
      <point x="557" y="505"/>
      <point x="532" y="290"/>
      <point x="515" y="150" type="curve" smooth="yes"/>
      <point x="504" y="61"/>
      <point x="459" y="59"/>
      <point x="425" y="59" type="curve" smooth="yes"/>
      <point x="390" y="59"/>
      <point x="342" y="79"/>
      <point x="302" y="99" type="curve"/>
      <point x="312" y="146"/>
      <point x="316" y="196"/>
      <point x="316" y="249" type="curve" smooth="yes"/>
      <point x="316" y="349"/>
      <point x="300" y="454"/>
      <point x="272" y="545" type="curve"/>
      <point x="187" y="517" type="line"/>
      <point x="211" y="428"/>
      <point x="229" y="325"/>
      <point x="229" y="225" type="curve" smooth="yes"/>
      <point x="229" y="197"/>
      <point x="227" y="158"/>
      <point x="224" y="132" type="curve"/>
      <point x="199" y="140"/>
      <point x="169" y="145"/>
      <point x="137" y="145" type="curve" smooth="yes"/>
      <point x="55" y="145"/>
      <point x="24" y="104"/>
      <point x="24" y="58" type="curve" smooth="yes"/>
      <point x="24" y="18"/>
      <point x="65" y="-20"/>
    </contour>
    <contour>
      <point x="142" y="34" type="curve" smooth="yes"/>
      <point x="113" y="34"/>
      <point x="98" y="44"/>
      <point x="98" y="61" type="curve" smooth="yes"/>
      <point x="98" y="74"/>
      <point x="106" y="91"/>
      <point x="143" y="91" type="curve" smooth="yes"/>
      <point x="163" y="91"/>
      <point x="185" y="85"/>
      <point x="207" y="76" type="curve"/>
      <point x="193" y="49"/>
      <point x="172" y="34"/>
    </contour>
  </outline>
</glyph>
<glyph name="uniAAA4" format="2">
  <advance width="624"/>
  <unicode hex="AAA4"/>
  <outline>
    <contour>
      <point x="229" y="-10" type="curve" smooth="yes"/>
      <point x="265" y="-10"/>
      <point x="281" y="21"/>
      <point x="295" y="62" type="curve" smooth="yes"/>
      <point x="334" y="175"/>
      <point x="370" y="327"/>
      <point x="469" y="502" type="curve"/>
      <point x="525" y="443" type="line"/>
      <point x="555" y="469" type="line"/>
      <point x="494" y="544" type="line"/>
      <point x="584" y="690"/>
      <point x="720" y="851"/>
      <point x="941" y="1019" type="curve"/>
      <point x="918" y="1055" type="line"/>
      <point x="728" y="919"/>
      <point x="571" y="778"/>
      <point x="449" y="600" type="curve"/>
      <point x="380" y="685" type="line" smooth="yes"/>
      <point x="361" y="708"/>
      <point x="330" y="746"/>
      <point x="303" y="746" type="curve" smooth="yes"/>
      <point x="284" y="746"/>
      <point x="252" y="721"/>
      <point x="230" y="702" type="curve" smooth="yes"/>
      <point x="-26" y="481" type="line"/>
      <point x="-2" y="449" type="line"/>
      <point x="45" y="485" type="line"/>
      <point x="67" y="350"/>
      <point x="135" y="90"/>
      <point x="179" y="17" type="curve" smooth="yes"/>
      <point x="193" y="-6"/>
      <point x="207" y="-10"/>
    </contour>
    <contour>
      <point x="229" y="110" type="curve"/>
      <point x="206" y="151"/>
      <point x="135" y="412"/>
      <point x="119" y="542" type="curve"/>
      <point x="215" y="615" type="line" smooth="yes"/>
      <point x="256" y="646"/>
      <point x="282" y="656"/>
      <point x="296" y="656" type="curve" smooth="yes"/>
      <point x="319" y="656"/>
      <point x="345" y="633"/>
      <point x="365" y="612" type="curve" smooth="yes"/>
      <point x="419" y="555" type="line"/>
      <point x="338" y="429"/>
      <point x="275" y="284"/>
    </contour>
  </outline>
</glyph>
<glyph name="uniAAA5" format="2">
  <advance width="556"/>
  <unicode hex="AAA5"/>
  <outline>
    <contour>
      <point x="229" y="-10" type="curve" smooth="yes"/>
      <point x="265" y="-10"/>
      <point x="277" y="14"/>
      <point x="286" y="44" type="curve" smooth="yes"/>
      <point x="294" y="71"/>
      <point x="309" y="142"/>
      <point x="333" y="222" type="curve" smooth="yes"/>
      <point x="360" y="312"/>
      <point x="399" y="420"/>
      <point x="456" y="515" type="curve"/>
      <point x="525" y="443" type="line"/>
      <point x="555" y="469" type="line"/>
      <point x="483" y="558" type="line"/>
      <point x="505" y="590"/>
      <point x="529" y="620"/>
      <point x="556" y="646" type="curve"/>
      <point x="532" y="676" type="line"/>
      <point x="502" y="651"/>
      <point x="475" y="625"/>
      <point x="451" y="597" type="curve"/>
      <point x="380" y="685" type="line" smooth="yes"/>
      <point x="361" y="708"/>
      <point x="330" y="746"/>
      <point x="303" y="746" type="curve" smooth="yes"/>
      <point x="284" y="746"/>
      <point x="252" y="721"/>
      <point x="230" y="702" type="curve" smooth="yes"/>
      <point x="-26" y="481" type="line"/>
      <point x="-2" y="449" type="line"/>
      <point x="45" y="485" type="line"/>
      <point x="67" y="350"/>
      <point x="134" y="90"/>
      <point x="179" y="17" type="curve" smooth="yes"/>
      <point x="193" y="-6"/>
      <point x="207" y="-10"/>
    </contour>
    <contour>
      <point x="229" y="110" type="curve"/>
      <point x="206" y="151"/>
      <point x="135" y="412"/>
      <point x="119" y="542" type="curve"/>
      <point x="215" y="615" type="line" smooth="yes"/>
      <point x="256" y="646"/>
      <point x="282" y="656"/>
      <point x="296" y="656" type="curve" smooth="yes"/>
      <point x="319" y="656"/>
      <point x="345" y="633"/>
      <point x="365" y="612" type="curve" smooth="yes"/>
      <point x="417" y="557" type="line"/>
      <point x="304" y="409"/>
      <point x="262" y="239"/>
    </contour>
  </outline>
</glyph>
<glyph name="uniAAA6" format="2">
  <advance width="708"/>
  <unicode hex="AAA6"/>
  <outline>
    <contour>
      <point x="272" y="-9" type="line"/>
      <point x="300" y="83"/>
      <point x="316" y="187"/>
      <point x="316" y="288" type="curve" smooth="yes"/>
      <point x="316" y="340"/>
      <point x="312" y="391"/>
      <point x="302" y="437" type="curve"/>
      <point x="342" y="458"/>
      <point x="402" y="478"/>
      <point x="445" y="478" type="curve" smooth="yes"/>
      <point x="528" y="478"/>
      <point x="547" y="439"/>
      <point x="547" y="335" type="curve" smooth="yes"/>
      <point x="547" y="250"/>
      <point x="541" y="181"/>
      <point x="541" y="124" type="curve" smooth="yes"/>
      <point x="541" y="75"/>
      <point x="545" y="34"/>
      <point x="562" y="-4" type="curve"/>
      <point x="649" y="24" type="line"/>
      <point x="633" y="57"/>
      <point x="628" y="96"/>
      <point x="628" y="139" type="curve" smooth="yes"/>
      <point x="628" y="204"/>
      <point x="635" y="276"/>
      <point x="635" y="341" type="curve" smooth="yes"/>
      <point x="635" y="458"/>
      <point x="585" y="546"/>
      <point x="450" y="546" type="curve" smooth="yes"/>
      <point x="395" y="546"/>
      <point x="323" y="520"/>
      <point x="274" y="494" type="curve"/>
      <point x="246" y="531"/>
      <point x="200" y="556"/>
      <point x="142" y="556" type="curve" smooth="yes"/>
      <point x="65" y="556"/>
      <point x="24" y="519"/>
      <point x="24" y="479" type="curve" smooth="yes"/>
      <point x="24" y="433"/>
      <point x="55" y="391"/>
      <point x="137" y="391" type="curve" smooth="yes"/>
      <point x="169" y="391"/>
      <point x="199" y="396"/>
      <point x="224" y="404" type="curve"/>
      <point x="227" y="378"/>
      <point x="229" y="339"/>
      <point x="229" y="311" type="curve" smooth="yes"/>
      <point x="229" y="211"/>
      <point x="211" y="108"/>
      <point x="187" y="20" type="curve"/>
    </contour>
    <contour>
      <point x="143" y="445" type="curve" smooth="yes"/>
      <point x="106" y="445"/>
      <point x="98" y="462"/>
      <point x="98" y="476" type="curve" smooth="yes"/>
      <point x="98" y="492"/>
      <point x="113" y="502"/>
      <point x="142" y="502" type="curve" smooth="yes"/>
      <point x="172" y="502"/>
      <point x="193" y="487"/>
      <point x="207" y="460" type="curve"/>
      <point x="185" y="451"/>
      <point x="163" y="445"/>
    </contour>
  </outline>
</glyph>
<glyph name="uniAAA7" format="2">
  <advance width="845"/>
  <unicode hex="AAA7"/>
  <outline>
    <contour>
      <point x="472" y="-94" type="line"/>
      <point x="498" y="-55"/>
      <point x="537" y="-3"/>
      <point x="582" y="35" type="curve"/>
      <point x="607" y="1"/>
      <point x="646" y="-20"/>
      <point x="700" y="-20" type="curve" smooth="yes"/>
      <point x="772" y="-20"/>
      <point x="821" y="23"/>
      <point x="821" y="62" type="curve" smooth="yes"/>
      <point x="821" y="107"/>
      <point x="790" y="145"/>
      <point x="708" y="145" type="curve" smooth="yes"/>
      <point x="683" y="145"/>
      <point x="657" y="139"/>
      <point x="632" y="128" type="curve"/>
      <point x="630" y="148"/>
      <point x="629" y="168"/>
      <point x="629" y="188" type="curve" smooth="yes"/>
      <point x="629" y="240"/>
      <point x="635" y="291"/>
      <point x="635" y="341" type="curve" smooth="yes"/>
      <point x="635" y="458"/>
      <point x="585" y="546"/>
      <point x="450" y="546" type="curve" smooth="yes"/>
      <point x="395" y="546"/>
      <point x="323" y="520"/>
      <point x="274" y="494" type="curve"/>
      <point x="246" y="531"/>
      <point x="200" y="556"/>
      <point x="142" y="556" type="curve" smooth="yes"/>
      <point x="65" y="556"/>
      <point x="24" y="519"/>
      <point x="24" y="479" type="curve" smooth="yes"/>
      <point x="24" y="433"/>
      <point x="55" y="391"/>
      <point x="137" y="391" type="curve" smooth="yes"/>
      <point x="169" y="391"/>
      <point x="199" y="396"/>
      <point x="224" y="404" type="curve"/>
      <point x="227" y="378"/>
      <point x="229" y="339"/>
      <point x="229" y="311" type="curve" smooth="yes"/>
      <point x="229" y="211"/>
      <point x="211" y="108"/>
      <point x="187" y="20" type="curve"/>
      <point x="272" y="-9" type="line"/>
      <point x="300" y="83"/>
      <point x="316" y="187"/>
      <point x="316" y="288" type="curve" smooth="yes"/>
      <point x="316" y="340"/>
      <point x="312" y="391"/>
      <point x="302" y="437" type="curve"/>
      <point x="342" y="458"/>
      <point x="402" y="478"/>
      <point x="445" y="478" type="curve" smooth="yes"/>
      <point x="528" y="478"/>
      <point x="547" y="439"/>
      <point x="547" y="335" type="curve" smooth="yes"/>
      <point x="547" y="273"/>
      <point x="541" y="229"/>
      <point x="541" y="181" type="curve" smooth="yes"/>
      <point x="541" y="146"/>
      <point x="546" y="111"/>
      <point x="557" y="81" type="curve"/>
      <point x="502" y="37"/>
      <point x="456" y="-22"/>
      <point x="428" y="-71" type="curve"/>
    </contour>
    <contour>
      <point x="143" y="445" type="curve" smooth="yes"/>
      <point x="106" y="445"/>
      <point x="98" y="462"/>
      <point x="98" y="476" type="curve" smooth="yes"/>
      <point x="98" y="492"/>
      <point x="113" y="502"/>
      <point x="142" y="502" type="curve" smooth="yes"/>
      <point x="172" y="502"/>
      <point x="193" y="487"/>
      <point x="207" y="460" type="curve"/>
      <point x="185" y="451"/>
      <point x="163" y="445"/>
    </contour>
    <contour>
      <point x="703" y="34" type="curve" smooth="yes"/>
      <point x="677" y="34"/>
      <point x="658" y="50"/>
      <point x="646" y="78" type="curve"/>
      <point x="665" y="86"/>
      <point x="684" y="91"/>
      <point x="703" y="91" type="curve" smooth="yes"/>
      <point x="739" y="91"/>
      <point x="748" y="74"/>
      <point x="748" y="61" type="curve" smooth="yes"/>
      <point x="748" y="44"/>
      <point x="732" y="34"/>
    </contour>
  </outline>
</glyph>
<glyph name="uniAAA8" format="2">
  <advance width="801"/>
  <unicode hex="AAA8"/>
  <outline>
    <contour>
      <point x="856" y="-293" type="curve"/>
      <point x="879" y="-255" type="line"/>
      <point x="722" y="-174"/>
      <point x="665" y="-113"/>
      <point x="665" y="31" type="curve" smooth="yes"/>
      <point x="665" y="116"/>
      <point x="703" y="278"/>
      <point x="703" y="375" type="curve" smooth="yes"/>
      <point x="703" y="486"/>
      <point x="653" y="546"/>
      <point x="562" y="546" type="curve" smooth="yes"/>
      <point x="517" y="546"/>
      <point x="464" y="524"/>
      <point x="419" y="491" type="curve"/>
      <point x="418" y="506"/>
      <point x="416" y="521"/>
      <point x="415" y="536" type="curve"/>
      <point x="325" y="506" type="line"/>
      <point x="331" y="466"/>
      <point x="335" y="414"/>
      <point x="335" y="358" type="curve" smooth="yes"/>
      <point x="335" y="217"/>
      <point x="326" y="59"/>
      <point x="224" y="59" type="curve" smooth="yes"/>
      <point x="172" y="59"/>
      <point x="161" y="125"/>
      <point x="161" y="201" type="curve" smooth="yes"/>
      <point x="161" y="287"/>
      <point x="167" y="360"/>
      <point x="167" y="417" type="curve" smooth="yes"/>
      <point x="167" y="466"/>
      <point x="163" y="507"/>
      <point x="145" y="545" type="curve"/>
      <point x="59" y="517" type="line"/>
      <point x="74" y="484"/>
      <point x="79" y="445"/>
      <point x="79" y="402" type="curve" smooth="yes"/>
      <point x="79" y="337"/>
      <point x="73" y="260"/>
      <point x="73" y="195" type="curve" smooth="yes"/>
      <point x="73" y="84"/>
      <point x="109" y="-10"/>
      <point x="206" y="-10" type="curve" smooth="yes"/>
      <point x="346" y="-10"/>
      <point x="423" y="163"/>
      <point x="423" y="390" type="curve" smooth="yes"/>
      <point x="423" y="404"/>
      <point x="423" y="419"/>
      <point x="422" y="433" type="curve"/>
      <point x="454" y="461"/>
      <point x="494" y="478"/>
      <point x="536" y="478" type="curve" smooth="yes"/>
      <point x="599" y="478"/>
      <point x="615" y="445"/>
      <point x="615" y="369" type="curve" smooth="yes"/>
      <point x="615" y="258"/>
      <point x="577" y="157"/>
      <point x="577" y="53" type="curve" smooth="yes"/>
      <point x="577" y="-152"/>
      <point x="702" y="-216"/>
    </contour>
  </outline>
</glyph>
<glyph name="uniAAA9" format="2">
  <advance width="664"/>
  <unicode hex="AAA9"/>
  <outline>
    <contour>
      <point x="275" y="-10" type="curve"/>
      <point x="377" y="17" type="line"/>
      <point x="409" y="192"/>
      <point x="462" y="353"/>
      <point x="615" y="512" type="curve"/>
      <point x="596" y="546" type="line"/>
      <point x="496" y="465"/>
      <point x="422" y="374"/>
      <point x="367" y="266" type="curve"/>
      <point x="360" y="264"/>
      <point x="353" y="263"/>
      <point x="344" y="263" type="curve" smooth="yes"/>
      <point x="269" y="263"/>
      <point x="345" y="546"/>
      <point x="178" y="546" type="curve" smooth="yes"/>
      <point x="126" y="546"/>
      <point x="59" y="508"/>
      <point x="24" y="479" type="curve"/>
      <point x="46" y="448" type="line"/>
      <point x="78" y="466"/>
      <point x="122" y="478"/>
      <point x="149" y="478" type="curve" smooth="yes"/>
      <point x="255" y="478"/>
      <point x="180" y="195"/>
      <point x="332" y="195" type="curve" smooth="yes"/>
      <point x="335" y="195" type="line"/>
      <point x="310" y="132"/>
      <point x="290" y="64"/>
    </contour>
  </outline>
</glyph>
<glyph name="uniAAAD" format="2">
  <advance width="784"/>
  <unicode hex="AAAD"/>
  <outline>
    <contour>
      <point x="196" y="-10" type="curve" smooth="yes"/>
      <point x="285" y="-10"/>
      <point x="342" y="67"/>
      <point x="379" y="187" type="curve" smooth="yes"/>
      <point x="415" y="305"/>
      <point x="453" y="477"/>
      <point x="526" y="477" type="curve" smooth="yes"/>
      <point x="604" y="477"/>
      <point x="638" y="368"/>
      <point x="638" y="260" type="curve" smooth="yes"/>
      <point x="638" y="152"/>
      <point x="600" y="44"/>
      <point x="540" y="44" type="curve" smooth="yes"/>
      <point x="503" y="44"/>
      <point x="477" y="73"/>
      <point x="458" y="96" type="curve"/>
      <point x="426" y="76" type="line"/>
      <point x="441" y="45"/>
      <point x="486" y="-10"/>
      <point x="557" y="-10" type="curve" smooth="yes"/>
      <point x="668" y="-10"/>
      <point x="726" y="127"/>
      <point x="726" y="266" type="curve" smooth="yes"/>
      <point x="726" y="405"/>
      <point x="667" y="545"/>
      <point x="544" y="545" type="curve" smooth="yes"/>
      <point x="432" y="545"/>
      <point x="379" y="440"/>
      <point x="338" y="284" type="curve" smooth="yes"/>
      <point x="316" y="201"/>
      <point x="280" y="59"/>
      <point x="214" y="59" type="curve" smooth="yes"/>
      <point x="162" y="59"/>
      <point x="151" y="125"/>
      <point x="151" y="201" type="curve" smooth="yes"/>
      <point x="151" y="287"/>
      <point x="157" y="360"/>
      <point x="157" y="417" type="curve" smooth="yes"/>
      <point x="157" y="466"/>
      <point x="153" y="507"/>
      <point x="135" y="545" type="curve"/>
      <point x="49" y="517" type="line"/>
      <point x="64" y="484"/>
      <point x="69" y="445"/>
      <point x="69" y="402" type="curve" smooth="yes"/>
      <point x="69" y="337"/>
      <point x="63" y="260"/>
      <point x="63" y="195" type="curve" smooth="yes"/>
      <point x="63" y="84"/>
      <point x="100" y="-10"/>
    </contour>
  </outline>
</glyph>
<glyph name="uniAAAF" format="2">
  <advance width="849"/>
  <unicode hex="AAAF"/>
  <outline>
    <contour>
      <point x="311" y="-293" type="line"/>
      <point x="585" y="-186"/>
      <point x="791" y="72"/>
      <point x="791" y="310" type="curve" smooth="yes"/>
      <point x="791" y="458"/>
      <point x="706" y="465"/>
      <point x="673" y="465" type="curve" smooth="yes"/>
      <point x="628" y="465"/>
      <point x="581" y="440"/>
      <point x="544" y="423" type="curve"/>
      <point x="520" y="492"/>
      <point x="462" y="546"/>
      <point x="351" y="546" type="curve" smooth="yes"/>
      <point x="224" y="546"/>
      <point x="145" y="466"/>
      <point x="145" y="396" type="curve" smooth="yes"/>
      <point x="145" y="345"/>
      <point x="188" y="295"/>
      <point x="282" y="295" type="curve" smooth="yes"/>
      <point x="327" y="295"/>
      <point x="397" y="312"/>
      <point x="471" y="340" type="curve"/>
      <point x="471" y="326" type="line" smooth="yes"/>
      <point x="471" y="195"/>
      <point x="409" y="59"/>
      <point x="259" y="59" type="curve" smooth="yes"/>
      <point x="188" y="59"/>
      <point x="107" y="94"/>
      <point x="107" y="189" type="curve" smooth="yes"/>
      <point x="107" y="208"/>
      <point x="111" y="226"/>
      <point x="118" y="243" type="curve"/>
      <point x="66" y="271" type="line"/>
      <point x="54" y="243"/>
      <point x="49" y="214"/>
      <point x="49" y="187" type="curve" smooth="yes"/>
      <point x="49" y="81"/>
      <point x="123" y="-10"/>
      <point x="252" y="-10" type="curve" smooth="yes"/>
      <point x="438" y="-10"/>
      <point x="559" y="149"/>
      <point x="559" y="328" type="curve" smooth="yes"/>
      <point x="559" y="344"/>
      <point x="558" y="361"/>
      <point x="555" y="377" type="curve"/>
      <point x="583" y="391"/>
      <point x="618" y="412"/>
      <point x="646" y="412" type="curve" smooth="yes"/>
      <point x="689" y="412"/>
      <point x="703" y="365"/>
      <point x="703" y="308" type="curve" smooth="yes"/>
      <point x="703" y="121"/>
      <point x="598" y="-125"/>
      <point x="288" y="-255" type="curve"/>
    </contour>
    <contour>
      <point x="299" y="349" type="curve" smooth="yes"/>
      <point x="243" y="349"/>
      <point x="218" y="371"/>
      <point x="218" y="397" type="curve" smooth="yes"/>
      <point x="218" y="434"/>
      <point x="266" y="478"/>
      <point x="344" y="478" type="curve" smooth="yes"/>
      <point x="406" y="478"/>
      <point x="447" y="445"/>
      <point x="463" y="388" type="curve"/>
      <point x="393" y="361"/>
      <point x="335" y="349"/>
    </contour>
  </outline>
</glyph>
<glyph name="uniAAB0" format="2">
  <unicode hex="AAB0"/>
  <outline>
    <contour>
      <point x="-484" y="635" type="curve" smooth="yes"/>
      <point x="-363" y="635"/>
      <point x="-290" y="739"/>
      <point x="-145" y="844" type="curve"/>
      <point x="-161" y="885" type="line"/>
      <point x="-313" y="783"/>
      <point x="-389" y="688"/>
      <point x="-476" y="688" type="curve" smooth="yes"/>
      <point x="-494" y="688"/>
      <point x="-515" y="701"/>
      <point x="-515" y="726" type="curve" smooth="yes"/>
      <point x="-515" y="766"/>
      <point x="-490" y="785"/>
      <point x="-463" y="803" type="curve"/>
      <point x="-477" y="825" type="line"/>
      <point x="-530" y="808"/>
      <point x="-578" y="761"/>
      <point x="-578" y="715" type="curve" smooth="yes"/>
      <point x="-578" y="663"/>
      <point x="-536" y="635"/>
    </contour>
  </outline>
</glyph>
<glyph name="uniAAB1" format="2">
  <advance width="315"/>
  <unicode hex="AAB1"/>
  <outline>
    <contour>
      <point x="134" y="-5" type="curve"/>
      <point x="217" y="15" type="line"/>
      <point x="204" y="64"/>
      <point x="200" y="125"/>
      <point x="200" y="201" type="curve" smooth="yes"/>
      <point x="200" y="287"/>
      <point x="206" y="360"/>
      <point x="206" y="417" type="curve" smooth="yes"/>
      <point x="206" y="466"/>
      <point x="202" y="507"/>
      <point x="184" y="545" type="curve"/>
      <point x="98" y="517" type="line"/>
      <point x="113" y="484"/>
      <point x="118" y="445"/>
      <point x="118" y="402" type="curve" smooth="yes"/>
      <point x="118" y="337"/>
      <point x="112" y="260"/>
      <point x="112" y="195" type="curve" smooth="yes"/>
      <point x="112" y="141"/>
      <point x="113" y="46"/>
    </contour>
  </outline>
</glyph>
<glyph name="uniAAB2" format="2">
	<unicode hex="AAB2"/>
	<outline>
		<contour>
			<point x="-523" y="635" type="line"/>
			<point x="-460" y="654"/>
			<point x="-386" y="715"/>
			<point x="-329" y="780" type="curve"/>
			<point x="-290" y="704"/>
			<point x="-194" y="672"/>
			<point x="-123" y="662" type="curve"/>
			<point x="-117" y="694" type="line"/>
			<point x="-231" y="729"/>
			<point x="-256" y="787"/>
			<point x="-269" y="861" type="curve"/>
			<point x="-345" y="873" type="line"/>
			<point x="-375" y="815"/>
			<point x="-421" y="730"/>
			<point x="-534" y="669" type="curve"/>
		</contour>
	</outline>
	<anchor name="_top" x="-333" y="620"/>
</glyph>
<glyph name="uniAAB3" format="2">
  <unicode hex="AAB3"/>
  <outline>
    <contour>
      <point x="-503" y="635" type="line"/>
      <point x="-436" y="670"/>
      <point x="-379" y="738"/>
      <point x="-362" y="803" type="curve"/>
      <point x="-291" y="823"/>
      <point x="-227" y="858"/>
      <point x="-158" y="896" type="curve"/>
      <point x="-177" y="937" type="line"/>
      <point x="-239" y="906"/>
      <point x="-300" y="877"/>
      <point x="-358" y="859" type="curve"/>
      <point x="-366" y="909"/>
      <point x="-405" y="953"/>
      <point x="-470" y="953" type="curve" smooth="yes"/>
      <point x="-542" y="953"/>
      <point x="-579" y="910"/>
      <point x="-579" y="872" type="curve" smooth="yes"/>
      <point x="-579" y="826"/>
      <point x="-544" y="788"/>
      <point x="-472" y="788" type="curve" smooth="yes"/>
      <point x="-457" y="788"/>
      <point x="-442" y="789"/>
      <point x="-428" y="790" type="curve"/>
      <point x="-441" y="746"/>
      <point x="-474" y="697"/>
      <point x="-527" y="659" type="curve"/>
    </contour>
    <contour>
      <point x="-466" y="842" type="curve" smooth="yes"/>
      <point x="-502" y="842"/>
      <point x="-516" y="859"/>
      <point x="-516" y="873" type="curve" smooth="yes"/>
      <point x="-516" y="889"/>
      <point x="-501" y="899"/>
      <point x="-472" y="899" type="curve" smooth="yes"/>
      <point x="-441" y="899"/>
      <point x="-423" y="877"/>
      <point x="-420" y="845" type="curve"/>
      <point x="-436" y="843"/>
      <point x="-451" y="842"/>
    </contour>
  </outline>
</glyph>
<glyph name="uniAAB4" format="2">
  <unicode hex="AAB4"/>
  <outline>
    <contour>
      <point x="-348" y="-293" type="line"/>
      <point x="-163" y="-267"/>
      <point x="-73" y="-168"/>
      <point x="-73" y="-102" type="curve" smooth="yes"/>
      <point x="-73" y="-65"/>
      <point x="-99" y="-39"/>
      <point x="-152" y="-39" type="curve" smooth="yes"/>
      <point x="-193" y="-39"/>
      <point x="-235" y="-69"/>
      <point x="-264" y="-95" type="curve"/>
      <point x="-248" y="-116" type="line"/>
      <point x="-229" y="-101"/>
      <point x="-196" y="-88"/>
      <point x="-177" y="-88" type="curve" smooth="yes"/>
      <point x="-153" y="-88"/>
      <point x="-142" y="-99"/>
      <point x="-142" y="-116" type="curve" smooth="yes"/>
      <point x="-142" y="-160"/>
      <point x="-221" y="-242"/>
      <point x="-354" y="-260" type="curve"/>
    </contour>
  </outline>
</glyph>
<glyph name="uniAAB6" format="2">
  <advance width="484"/>
  <unicode hex="AAB6"/>
  <outline>
    <contour>
      <point x="347" y="-20" type="curve" smooth="yes"/>
      <point x="402" y="-20"/>
      <point x="456" y="11"/>
      <point x="456" y="64" type="curve" smooth="yes"/>
      <point x="456" y="132"/>
      <point x="373" y="181"/>
      <point x="261" y="210" type="curve"/>
      <point x="260" y="225"/>
      <point x="260" y="239"/>
      <point x="260" y="255" type="curve" smooth="yes"/>
      <point x="260" y="567"/>
      <point x="443" y="867"/>
      <point x="672" y="1019" type="curve"/>
      <point x="649" y="1055" type="line"/>
      <point x="319" y="838"/>
      <point x="172" y="512"/>
      <point x="172" y="237" type="curve" smooth="yes"/>
      <point x="172" y="229" type="line"/>
      <point x="135" y="235"/>
      <point x="96" y="239"/>
      <point x="57" y="242" type="curve"/>
      <point x="49" y="195" type="line"/>
      <point x="98" y="190"/>
      <point x="139" y="184"/>
      <point x="175" y="177" type="curve"/>
      <point x="192" y="37"/>
      <point x="266" y="-20"/>
    </contour>
    <contour>
      <point x="343" y="34" type="curve" smooth="yes"/>
      <point x="302" y="34"/>
      <point x="277" y="78"/>
      <point x="266" y="155" type="curve"/>
      <point x="373" y="122"/>
      <point x="388" y="83"/>
      <point x="388" y="61" type="curve" smooth="yes"/>
      <point x="388" y="49"/>
      <point x="372" y="34"/>
    </contour>
  </outline>
</glyph>
<glyph name="uniAAB8" format="2">
  <unicode hex="AAB8"/>
  <outline>
    <contour>
      <point x="-584" y="635" type="line"/>
      <point x="-524" y="651"/>
      <point x="-441" y="686"/>
      <point x="-356" y="729" type="curve"/>
      <point x="-341" y="707"/>
      <point x="-326" y="685"/>
      <point x="-311" y="662" type="curve"/>
      <point x="-264" y="688" type="line"/>
      <point x="-280" y="710"/>
      <point x="-297" y="731"/>
      <point x="-313" y="751" type="curve"/>
      <point x="-257" y="780"/>
      <point x="-201" y="812"/>
      <point x="-152" y="842" type="curve"/>
      <point x="-176" y="880" type="line"/>
      <point x="-230" y="852"/>
      <point x="-291" y="823"/>
      <point x="-352" y="796" type="curve"/>
      <point x="-376" y="824"/>
      <point x="-399" y="849"/>
      <point x="-419" y="868" type="curve"/>
      <point x="-448" y="846" type="line"/>
      <point x="-432" y="829"/>
      <point x="-413" y="806"/>
      <point x="-392" y="779" type="curve"/>
      <point x="-487" y="738"/>
      <point x="-571" y="706"/>
      <point x="-606" y="698" type="curve"/>
    </contour>
  </outline>
</glyph>
<glyph name="uniAAB9" format="2">
  <advance width="539"/>
  <unicode hex="AAB9"/>
  <outline>
    <contour>
      <point x="218" y="-5" type="curve"/>
      <point x="297" y="28" type="line"/>
      <point x="286" y="73"/>
      <point x="283" y="112"/>
      <point x="283" y="150" type="curve" smooth="yes"/>
      <point x="283" y="328"/>
      <point x="361" y="478"/>
      <point x="460" y="587" type="curve"/>
      <point x="434" y="617" type="line"/>
      <point x="315" y="497"/>
      <point x="195" y="312"/>
      <point x="195" y="134" type="curve" smooth="yes"/>
      <point x="195" y="131" type="line"/>
      <point x="162" y="151"/>
      <point x="126" y="162"/>
      <point x="90" y="166" type="curve"/>
      <point x="78" y="115" type="line"/>
      <point x="137" y="109"/>
      <point x="188" y="55"/>
    </contour>
  </outline>
</glyph>
<glyph name="uniAABA" format="2">
  <advance width="465"/>
  <unicode hex="AABA"/>
  <outline>
    <contour>
      <point x="294" y="-4" type="curve"/>
      <point x="380" y="24" type="line"/>
      <point x="365" y="57"/>
      <point x="360" y="96"/>
      <point x="360" y="139" type="curve" smooth="yes"/>
      <point x="360" y="204"/>
      <point x="366" y="255"/>
      <point x="366" y="302" type="curve" smooth="yes"/>
      <point x="366" y="353"/>
      <point x="360" y="413"/>
      <point x="352" y="453" type="curve"/>
      <point x="320" y="446"/>
      <point x="263" y="441"/>
      <point x="231" y="441" type="curve" smooth="yes"/>
      <point x="191" y="441"/>
      <point x="146" y="468"/>
      <point x="146" y="535" type="curve" smooth="yes"/>
      <point x="146" y="650"/>
      <point x="234" y="713"/>
      <point x="490" y="781" type="curve"/>
      <point x="479" y="811" type="line"/>
      <point x="277" y="782"/>
      <point x="59" y="684"/>
      <point x="59" y="525" type="curve" smooth="yes"/>
      <point x="59" y="427"/>
      <point x="137" y="373"/>
      <point x="223" y="373" type="curve" smooth="yes"/>
      <point x="237" y="373"/>
      <point x="256" y="373"/>
      <point x="275" y="375" type="curve"/>
      <point x="277" y="359"/>
      <point x="278" y="340"/>
      <point x="278" y="317" type="curve" smooth="yes"/>
      <point x="278" y="266"/>
      <point x="272" y="201"/>
      <point x="272" y="124" type="curve" smooth="yes"/>
      <point x="272" y="75"/>
      <point x="276" y="34"/>
    </contour>
  </outline>
</glyph>
<glyph name="uniAABC" format="2">
  <advance width="529"/>
  <unicode hex="AABC"/>
  <outline>
    <contour>
      <point x="381" y="-5" type="curve"/>
      <point x="467" y="24" type="line"/>
      <point x="452" y="57"/>
      <point x="447" y="96"/>
      <point x="447" y="139" type="curve" smooth="yes"/>
      <point x="447" y="204"/>
      <point x="453" y="276"/>
      <point x="453" y="341" type="curve" smooth="yes"/>
      <point x="453" y="440"/>
      <point x="417" y="545"/>
      <point x="396" y="563" type="curve"/>
      <point x="362" y="551"/>
      <point x="303" y="535"/>
      <point x="240" y="535" type="curve" smooth="yes"/>
      <point x="168" y="535"/>
      <point x="112" y="576"/>
      <point x="112" y="670" type="curve" smooth="yes"/>
      <point x="112" y="816"/>
      <point x="273" y="957"/>
      <point x="529" y="1025" type="curve"/>
      <point x="518" y="1055" type="line"/>
      <point x="316" y="1026"/>
      <point x="24" y="881"/>
      <point x="24" y="664" type="curve" smooth="yes"/>
      <point x="24" y="548"/>
      <point x="106" y="467"/>
      <point x="235" y="467" type="curve" smooth="yes"/>
      <point x="261" y="467"/>
      <point x="305" y="469"/>
      <point x="342" y="477" type="curve"/>
      <point x="357" y="457"/>
      <point x="365" y="395"/>
      <point x="365" y="335" type="curve" smooth="yes"/>
      <point x="365" y="250"/>
      <point x="359" y="181"/>
      <point x="359" y="124" type="curve" smooth="yes"/>
      <point x="359" y="75"/>
      <point x="363" y="33"/>
    </contour>
  </outline>
</glyph>
<glyph name="uniAABE" format="2">
  <unicode hex="AABE"/>
  <outline>
    <contour>
      <point x="-575" y="635" type="line"/>
      <point x="-514" y="639"/>
      <point x="-429" y="647"/>
      <point x="-339" y="668" type="curve"/>
      <point x="-352" y="727" type="line"/>
      <point x="-441" y="701"/>
      <point x="-527" y="678"/>
      <point x="-582" y="671" type="curve"/>
    </contour>
    <contour>
      <point x="-435" y="783" type="line"/>
      <point x="-374" y="787"/>
      <point x="-289" y="796"/>
      <point x="-199" y="816" type="curve"/>
      <point x="-212" y="875" type="line"/>
      <point x="-301" y="849"/>
      <point x="-387" y="827"/>
      <point x="-441" y="820" type="curve"/>
    </contour>
    <contour>
      <point x="-295" y="932" type="line"/>
      <point x="-234" y="936"/>
      <point x="-149" y="944"/>
      <point x="-59" y="965" type="curve"/>
      <point x="-72" y="1024" type="line"/>
      <point x="-161" y="998"/>
      <point x="-247" y="975"/>
      <point x="-301" y="968" type="curve"/>
    </contour>
  </outline>
</glyph>
<glyph name="uniAABF" format="2">
	<unicode hex="AABF"/>
	<outline>
		<contour>
			<point x="-310" y="635" type="line"/>
			<point x="-267" y="762"/>
			<point x="-208" y="888"/>
			<point x="-156" y="972" type="curve"/>
			<point x="-229" y="1008" type="line"/>
			<point x="-277" y="924"/>
			<point x="-336" y="736"/>
			<point x="-354" y="651" type="curve"/>
		</contour>
	</outline>
	<anchor name="_top" x="-245" y="620"/>
</glyph>
<glyph name="uniAAC0" format="2">
  <advance width="590"/>
  <unicode hex="AAC0"/>
  <outline>
    <contour>
      <point x="305" y="-10" type="curve" smooth="yes"/>
      <point x="399" y="-10"/>
      <point x="480" y="38"/>
      <point x="531" y="105" type="curve"/>
      <point x="493" y="141" type="line"/>
      <point x="451" y="82"/>
      <point x="379" y="59"/>
      <point x="321" y="59" type="curve" smooth="yes"/>
      <point x="218" y="59"/>
      <point x="179" y="124"/>
      <point x="179" y="207" type="curve" smooth="yes"/>
      <point x="179" y="234"/>
      <point x="183" y="264"/>
      <point x="189" y="293" type="curve"/>
      <point x="239" y="273"/>
      <point x="281" y="266"/>
      <point x="320" y="266" type="curve" smooth="yes"/>
      <point x="462" y="266"/>
      <point x="509" y="352"/>
      <point x="509" y="419" type="curve" smooth="yes"/>
      <point x="509" y="479"/>
      <point x="474" y="546"/>
      <point x="363" y="546" type="curve" smooth="yes"/>
      <point x="254" y="546"/>
      <point x="174" y="472"/>
      <point x="130" y="377" type="curve"/>
      <point x="113" y="388"/>
      <point x="95" y="399"/>
      <point x="77" y="412" type="curve"/>
      <point x="49" y="370" type="line"/>
      <point x="71" y="355"/>
      <point x="92" y="342"/>
      <point x="111" y="331" type="curve"/>
      <point x="98" y="290"/>
      <point x="91" y="246"/>
      <point x="91" y="205" type="curve" smooth="yes"/>
      <point x="91" y="83"/>
      <point x="164" y="-10"/>
    </contour>
    <contour>
      <point x="310" y="315" type="curve" smooth="yes"/>
      <point x="280" y="315"/>
      <point x="245" y="322"/>
      <point x="203" y="340" type="curve"/>
      <point x="230" y="414"/>
      <point x="279" y="478"/>
      <point x="347" y="478" type="curve" smooth="yes"/>
      <point x="398" y="478"/>
      <point x="421" y="450"/>
      <point x="421" y="412" type="curve" smooth="yes"/>
      <point x="421" y="364"/>
      <point x="387" y="315"/>
    </contour>
  </outline>
</glyph>
<glyph name="uniAAC1" format="2">
  <unicode hex="AAC1"/>
  <outline>
    <contour>
      <point x="-542" y="635" type="line"/>
      <point x="-490" y="676"/>
      <point x="-305" y="792"/>
      <point x="-159" y="862" type="curve"/>
      <point x="-176" y="898" type="line"/>
      <point x="-258" y="867"/>
      <point x="-350" y="825"/>
      <point x="-432" y="778" type="curve"/>
      <point x="-428" y="792"/>
      <point x="-426" y="807"/>
      <point x="-426" y="821" type="curve" smooth="yes"/>
      <point x="-426" y="882"/>
      <point x="-462" y="937"/>
      <point x="-551" y="937" type="curve" smooth="yes"/>
      <point x="-589" y="937"/>
      <point x="-617" y="925"/>
      <point x="-635" y="908" type="curve"/>
      <point x="-593" y="868" type="line"/>
      <point x="-587" y="877"/>
      <point x="-574" y="883"/>
      <point x="-553" y="883" type="curve" smooth="yes"/>
      <point x="-519" y="883"/>
      <point x="-500" y="861"/>
      <point x="-500" y="825" type="curve" smooth="yes"/>
      <point x="-500" y="773"/>
      <point x="-513" y="740"/>
      <point x="-550" y="706" type="curve" smooth="yes"/>
      <point x="-560" y="697"/>
      <point x="-572" y="691"/>
      <point x="-581" y="684" type="curve"/>
    </contour>
  </outline>
</glyph>
<glyph name="uniAAC2" format="2">
  <advance width="417"/>
  <unicode hex="AAC2"/>
  <outline>
    <contour>
      <point x="-35" y="-293" type="line"/>
      <point x="207" y="-130"/>
      <point x="341" y="110"/>
      <point x="350" y="293" type="curve"/>
      <point x="370" y="290"/>
      <point x="392" y="288"/>
      <point x="413" y="286" type="curve"/>
      <point x="417" y="334" type="line"/>
      <point x="392" y="337"/>
      <point x="369" y="340"/>
      <point x="348" y="344" type="curve"/>
      <point x="336" y="463"/>
      <point x="258" y="546"/>
      <point x="143" y="546" type="curve" smooth="yes"/>
      <point x="87" y="546"/>
      <point x="33" y="515"/>
      <point x="33" y="462" type="curve" smooth="yes"/>
      <point x="33" y="387"/>
      <point x="133" y="336"/>
      <point x="262" y="308" type="curve"/>
      <point x="261" y="156"/>
      <point x="214" y="-53"/>
      <point x="-59" y="-257" type="curve"/>
    </contour>
    <contour>
      <point x="258" y="362" type="curve"/>
      <point x="120" y="397"/>
      <point x="102" y="442"/>
      <point x="102" y="466" type="curve" smooth="yes"/>
      <point x="102" y="477"/>
      <point x="117" y="492"/>
      <point x="146" y="492" type="curve" smooth="yes"/>
      <point x="205" y="492"/>
      <point x="246" y="442"/>
    </contour>
  </outline>
</glyph>
<glyph name="uniAADC" format="2">
  <advance width="929"/>
  <unicode hex="AADC"/>
  <outline>
    <contour>
      <point x="616" y="-10" type="curve" smooth="yes"/>
      <point x="745" y="-10"/>
      <point x="817" y="116"/>
      <point x="838" y="333" type="curve" smooth="yes"/>
      <point x="861" y="568"/>
      <point x="885" y="683"/>
      <point x="1017" y="810" type="curve"/>
      <point x="994" y="840" type="line"/>
      <point x="837" y="700"/>
      <point x="763" y="536"/>
      <point x="751" y="345" type="curve" smooth="yes"/>
      <point x="742" y="205"/>
      <point x="729" y="59"/>
      <point x="634" y="59" type="curve" smooth="yes"/>
      <point x="582" y="59"/>
      <point x="546" y="109"/>
      <point x="546" y="185" type="curve" smooth="yes"/>
      <point x="546" y="268"/>
      <point x="562" y="351"/>
      <point x="562" y="397" type="curve" smooth="yes"/>
      <point x="562" y="487"/>
      <point x="530" y="546"/>
      <point x="452" y="546" type="curve" smooth="yes"/>
      <point x="254" y="546"/>
      <point x="120" y="292"/>
      <point x="107" y="-2" type="curve"/>
      <point x="203" y="24" type="line"/>
      <point x="221" y="220"/>
      <point x="256" y="478"/>
      <point x="425" y="478" type="curve" smooth="yes"/>
      <point x="467" y="478"/>
      <point x="474" y="448"/>
      <point x="474" y="417" type="curve" smooth="yes"/>
      <point x="474" y="347"/>
      <point x="458" y="254"/>
      <point x="458" y="179" type="curve" smooth="yes"/>
      <point x="458" y="68"/>
      <point x="520" y="-10"/>
    </contour>
  </outline>
</glyph>
<glyph name="uniAADD" format="2">
  <advance width="717"/>
  <unicode hex="AADD"/>
  <outline>
    <contour>
      <point x="541" y="-10" type="curve" smooth="yes"/>
      <point x="623" y="-10"/>
      <point x="659" y="46"/>
      <point x="659" y="91" type="curve" smooth="yes"/>
      <point x="659" y="147"/>
      <point x="600" y="193"/>
      <point x="523" y="239" type="curve"/>
      <point x="537" y="302"/>
      <point x="551" y="368"/>
      <point x="551" y="419" type="curve" smooth="yes"/>
      <point x="551" y="480"/>
      <point x="507" y="546"/>
      <point x="416" y="546" type="curve" smooth="yes"/>
      <point x="341" y="546"/>
      <point x="275" y="509"/>
      <point x="221" y="446" type="curve"/>
      <point x="183" y="490"/>
      <point x="158" y="542"/>
      <point x="158" y="604" type="curve" smooth="yes"/>
      <point x="158" y="727"/>
      <point x="260" y="885"/>
      <point x="511" y="1019" type="curve"/>
      <point x="488" y="1055" type="line"/>
      <point x="205" y="903"/>
      <point x="70" y="737"/>
      <point x="70" y="602" type="curve" smooth="yes"/>
      <point x="70" y="509"/>
      <point x="113" y="438"/>
      <point x="175" y="381" type="curve"/>
      <point x="116" y="283"/>
      <point x="77" y="149"/>
      <point x="59" y="-2" type="curve"/>
      <point x="154" y="24" type="line"/>
      <point x="171" y="139"/>
      <point x="189" y="254"/>
      <point x="225" y="339" type="curve"/>
      <point x="293" y="290"/>
      <point x="371" y="251"/>
      <point x="439" y="216" type="curve"/>
      <point x="433" y="178"/>
      <point x="428" y="141"/>
      <point x="428" y="105" type="curve" smooth="yes"/>
      <point x="428" y="41"/>
      <point x="462" y="-10"/>
    </contour>
    <contour>
      <point x="543" y="44" type="curve" smooth="yes"/>
      <point x="521" y="44"/>
      <point x="501" y="62"/>
      <point x="501" y="93" type="curve" smooth="yes"/>
      <point x="501" y="116"/>
      <point x="505" y="145"/>
      <point x="511" y="175" type="curve"/>
      <point x="559" y="145"/>
      <point x="591" y="116"/>
      <point x="591" y="81" type="curve" smooth="yes"/>
      <point x="591" y="58"/>
      <point x="577" y="44"/>
    </contour>
    <contour>
      <point x="449" y="281" type="curve"/>
      <point x="384" y="318"/>
      <point x="316" y="357"/>
      <point x="261" y="405" type="curve"/>
      <point x="294" y="451"/>
      <point x="337" y="478"/>
      <point x="396" y="478" type="curve" smooth="yes"/>
      <point x="431" y="478"/>
      <point x="463" y="443"/>
      <point x="463" y="412" type="curve" smooth="yes"/>
      <point x="463" y="369"/>
      <point x="457" y="325"/>
    </contour>
  </outline>
</glyph>
<glyph name="uniAADE" format="2">
  <advance width="1670"/>
  <unicode hex="AADE"/>
  <outline>
    <contour>
      <point x="133" y="734" type="line"/>
      <point x="222" y="827"/>
      <point x="410" y="922"/>
      <point x="580" y="922" type="curve" smooth="yes"/>
      <point x="707" y="922"/>
      <point x="759" y="828"/>
      <point x="805" y="736" type="curve"/>
      <point x="864" y="835"/>
      <point x="976" y="953"/>
      <point x="1215" y="953" type="curve" smooth="yes"/>
      <point x="1324" y="953"/>
      <point x="1438" y="903"/>
      <point x="1532" y="736" type="curve"/>
      <point x="1621" y="851" type="line"/>
      <point x="1542" y="952"/>
      <point x="1388" y="1021"/>
      <point x="1222" y="1021" type="curve" smooth="yes"/>
      <point x="1016" y="1021"/>
      <point x="927" y="956"/>
      <point x="844" y="899" type="curve"/>
      <point x="757" y="980"/>
      <point x="665" y="991"/>
      <point x="583" y="991" type="curve" smooth="yes"/>
      <point x="399" y="991"/>
      <point x="169" y="849"/>
      <point x="100" y="785" type="curve"/>
    </contour>
    <contour>
      <point x="331" y="-159" type="curve" smooth="yes"/>
      <point x="347" y="-159"/>
      <point x="366" y="-154"/>
      <point x="385" y="-146" type="curve"/>
      <point x="375" y="-98" type="line"/>
      <point x="363" y="-103"/>
      <point x="351" y="-104"/>
      <point x="337" y="-104" type="curve" smooth="yes"/>
      <point x="303" y="-104"/>
      <point x="265" y="-83"/>
      <point x="233" y="-47" type="curve"/>
      <point x="190" y="-109" type="line"/>
      <point x="222" y="-136"/>
      <point x="267" y="-159"/>
    </contour>
    <contour>
      <point x="210" y="-4" type="curve"/>
      <point x="273" y="22" type="line"/>
      <point x="265" y="59"/>
      <point x="262" y="90"/>
      <point x="262" y="120" type="curve" smooth="yes"/>
      <point x="262" y="262"/>
      <point x="325" y="382"/>
      <point x="404" y="470" type="curve"/>
      <point x="382" y="494" type="line"/>
      <point x="288" y="397"/>
      <point x="191" y="249"/>
      <point x="191" y="107" type="curve" smooth="yes"/>
      <point x="191" y="105" type="line"/>
      <point x="166" y="121"/>
      <point x="136" y="130"/>
      <point x="107" y="133" type="curve"/>
      <point x="98" y="92" type="line"/>
      <point x="145" y="87"/>
      <point x="187" y="44"/>
    </contour>
    <contour>
      <point x="321" y="-293" type="curve" smooth="yes"/>
      <point x="373" y="-293"/>
      <point x="444" y="-269"/>
      <point x="503" y="-226" type="curve"/>
      <point x="563" y="-274"/>
      <point x="635" y="-293"/>
      <point x="711" y="-293" type="curve" smooth="yes"/>
      <point x="776" y="-293"/>
      <point x="858" y="-267"/>
      <point x="897" y="-226" type="curve"/>
      <point x="966" y="-281"/>
      <point x="1059" y="-293"/>
      <point x="1158" y="-293" type="curve" smooth="yes"/>
      <point x="1288" y="-293"/>
      <point x="1407" y="-218"/>
      <point x="1468" y="-154" type="curve"/>
      <point x="1435" y="-104" type="line"/>
      <point x="1347" y="-194"/>
      <point x="1246" y="-225"/>
      <point x="1161" y="-225" type="curve" smooth="yes"/>
      <point x="1074" y="-225"/>
      <point x="980" y="-183"/>
      <point x="935" y="-91" type="curve"/>
      <point x="865" y="-190"/>
      <point x="819" y="-225"/>
      <point x="732" y="-225" type="curve" smooth="yes"/>
      <point x="662" y="-225"/>
      <point x="597" y="-170"/>
      <point x="534" y="-91" type="curve"/>
      <point x="465" y="-190"/>
      <point x="410" y="-225"/>
      <point x="331" y="-225" type="curve" smooth="yes"/>
      <point x="259" y="-225"/>
      <point x="175" y="-180"/>
      <point x="118" y="-106" type="curve"/>
      <point x="49" y="-195" type="line"/>
      <point x="101" y="-243"/>
      <point x="183" y="-293"/>
    </contour>
    <contour>
      <point x="771" y="-159" type="curve" smooth="yes"/>
      <point x="787" y="-159"/>
      <point x="805" y="-154"/>
      <point x="824" y="-146" type="curve"/>
      <point x="814" y="-98" type="line"/>
      <point x="802" y="-103"/>
      <point x="790" y="-104"/>
      <point x="776" y="-104" type="curve" smooth="yes"/>
      <point x="743" y="-104"/>
      <point x="705" y="-83"/>
      <point x="672" y="-47" type="curve"/>
      <point x="630" y="-109" type="line"/>
      <point x="662" y="-136"/>
      <point x="707" y="-159"/>
    </contour>
    <contour>
      <point x="567" y="-8" type="curve" smooth="yes"/>
      <point x="639" y="-8"/>
      <point x="685" y="54"/>
      <point x="714" y="149" type="curve" smooth="yes"/>
      <point x="743" y="244"/>
      <point x="773" y="381"/>
      <point x="832" y="381" type="curve" smooth="yes"/>
      <point x="894" y="381"/>
      <point x="921" y="294"/>
      <point x="921" y="208" type="curve" smooth="yes"/>
      <point x="921" y="122"/>
      <point x="891" y="35"/>
      <point x="843" y="35" type="curve" smooth="yes"/>
      <point x="813" y="35"/>
      <point x="792" y="58"/>
      <point x="777" y="77" type="curve"/>
      <point x="751" y="61" type="line"/>
      <point x="764" y="36"/>
      <point x="800" y="-8"/>
      <point x="856" y="-8" type="curve" smooth="yes"/>
      <point x="945" y="-8"/>
      <point x="991" y="102"/>
      <point x="991" y="212" type="curve" smooth="yes"/>
      <point x="991" y="324"/>
      <point x="944" y="436"/>
      <point x="846" y="436" type="curve" smooth="yes"/>
      <point x="756" y="436"/>
      <point x="714" y="352"/>
      <point x="681" y="228" type="curve" smooth="yes"/>
      <point x="663" y="161"/>
      <point x="635" y="47"/>
      <point x="582" y="47" type="curve" smooth="yes"/>
      <point x="541" y="47"/>
      <point x="531" y="100"/>
      <point x="531" y="161" type="curve" smooth="yes"/>
      <point x="531" y="229"/>
      <point x="537" y="288"/>
      <point x="537" y="334" type="curve" smooth="yes"/>
      <point x="537" y="373"/>
      <point x="533" y="406"/>
      <point x="519" y="436" type="curve"/>
      <point x="450" y="413" type="line"/>
      <point x="462" y="387"/>
      <point x="466" y="356"/>
      <point x="466" y="322" type="curve" smooth="yes"/>
      <point x="466" y="270"/>
      <point x="461" y="208"/>
      <point x="461" y="156" type="curve" smooth="yes"/>
      <point x="461" y="67"/>
      <point x="490" y="-8"/>
    </contour>
    <contour>
      <point x="177" y="625" type="line"/>
      <point x="199" y="652"/>
      <point x="228" y="665"/>
      <point x="259" y="665" type="curve" smooth="yes"/>
      <point x="290" y="665"/>
      <point x="318" y="653"/>
      <point x="342" y="638" type="curve"/>
      <point x="363" y="714" type="line"/>
      <point x="338" y="724"/>
      <point x="312" y="729"/>
      <point x="285" y="729" type="curve" smooth="yes"/>
      <point x="234" y="729"/>
      <point x="187" y="709"/>
      <point x="153" y="669" type="curve"/>
    </contour>
    <contour>
      <point x="1210" y="-159" type="curve" smooth="yes"/>
      <point x="1226" y="-159"/>
      <point x="1245" y="-154"/>
      <point x="1264" y="-146" type="curve"/>
      <point x="1253" y="-98" type="line"/>
      <point x="1242" y="-103"/>
      <point x="1229" y="-104"/>
      <point x="1216" y="-104" type="curve" smooth="yes"/>
      <point x="1182" y="-104"/>
      <point x="1144" y="-83"/>
      <point x="1112" y="-47" type="curve"/>
      <point x="1069" y="-109" type="line"/>
      <point x="1101" y="-136"/>
      <point x="1146" y="-159"/>
    </contour>
    <contour>
      <point x="552" y="499" type="line"/>
      <point x="608" y="529"/>
      <point x="852" y="594"/>
      <point x="982" y="621" type="curve"/>
      <point x="976" y="655" type="line"/>
      <point x="836" y="642"/>
      <point x="633" y="602"/>
      <point x="526" y="555" type="curve"/>
    </contour>
    <contour>
      <point x="472" y="742" type="line"/>
      <point x="494" y="769"/>
      <point x="522" y="782"/>
      <point x="553" y="782" type="curve" smooth="yes"/>
      <point x="584" y="782"/>
      <point x="612" y="770"/>
      <point x="636" y="755" type="curve"/>
      <point x="658" y="831" type="line"/>
      <point x="632" y="841"/>
      <point x="606" y="846"/>
      <point x="580" y="846" type="curve" smooth="yes"/>
      <point x="529" y="846"/>
      <point x="481" y="826"/>
      <point x="447" y="786" type="curve"/>
    </contour>
    <contour>
      <point x="1219" y="88" type="curve"/>
      <point x="1200" y="120"/>
      <point x="1143" y="331"/>
      <point x="1131" y="433" type="curve"/>
      <point x="1208" y="492" type="line" smooth="yes"/>
      <point x="1241" y="517"/>
      <point x="1261" y="524"/>
      <point x="1272" y="524" type="curve" smooth="yes"/>
      <point x="1291" y="524"/>
      <point x="1311" y="506"/>
      <point x="1328" y="489" type="curve" smooth="yes"/>
      <point x="1371" y="444" type="line"/>
      <point x="1307" y="342"/>
      <point x="1256" y="227"/>
    </contour>
    <contour>
      <point x="1219" y="-8" type="curve" smooth="yes"/>
      <point x="1248" y="-8"/>
      <point x="1260" y="17"/>
      <point x="1271" y="50" type="curve" smooth="yes"/>
      <point x="1301" y="141"/>
      <point x="1332" y="262"/>
      <point x="1411" y="401" type="curve"/>
      <point x="1456" y="354" type="line"/>
      <point x="1480" y="375" type="line"/>
      <point x="1431" y="435" type="line"/>
      <point x="1472" y="502"/>
      <point x="1527" y="583"/>
      <point x="1600" y="666" type="curve"/>
      <point x="1576" y="702" type="line"/>
      <point x="1507" y="631"/>
      <point x="1446" y="556"/>
      <point x="1395" y="480" type="curve"/>
      <point x="1339" y="548" type="line" smooth="yes"/>
      <point x="1324" y="567"/>
      <point x="1299" y="597"/>
      <point x="1278" y="597" type="curve" smooth="yes"/>
      <point x="1263" y="597"/>
      <point x="1237" y="577"/>
      <point x="1220" y="562" type="curve" smooth="yes"/>
      <point x="1015" y="385" type="line"/>
      <point x="1034" y="359" type="line"/>
      <point x="1071" y="388" type="line"/>
      <point x="1089" y="280"/>
      <point x="1144" y="72"/>
      <point x="1179" y="14" type="curve" smooth="yes"/>
      <point x="1190" y="-4"/>
      <point x="1201" y="-8"/>
    </contour>
    <contour>
      <point x="925" y="729" type="line"/>
      <point x="955" y="766"/>
      <point x="995" y="781"/>
      <point x="1039" y="781" type="curve" smooth="yes"/>
      <point x="1054" y="781"/>
      <point x="1069" y="779"/>
      <point x="1085" y="776" type="curve"/>
      <point x="1092" y="854" type="line"/>
      <point x="1085" y="855"/>
      <point x="1077" y="855"/>
      <point x="1070" y="855" type="curve" smooth="yes"/>
      <point x="994" y="855"/>
      <point x="931" y="814"/>
      <point x="894" y="768" type="curve"/>
    </contour>
    <contour>
      <point x="1203" y="675" type="line"/>
      <point x="1233" y="712"/>
      <point x="1272" y="727"/>
      <point x="1316" y="727" type="curve" smooth="yes"/>
      <point x="1332" y="727"/>
      <point x="1347" y="725"/>
      <point x="1363" y="722" type="curve"/>
      <point x="1370" y="800" type="line"/>
      <point x="1363" y="801"/>
      <point x="1355" y="801"/>
      <point x="1348" y="801" type="curve" smooth="yes"/>
      <point x="1272" y="801"/>
      <point x="1209" y="760"/>
      <point x="1171" y="714" type="curve"/>
    </contour>
  </outline>
</glyph>
